# Blender v2.65 (sub 0) OBJ File: 'ATR.blend'
# www.blender.org
mtllib B_HT.mtl
o B_HT.1_ShapeIndexedFaceS.042
v 0.362993 0.686965 -25.011192
v -0.106550 0.686963 -25.011196
v 0.362992 1.130950 -25.003094
v -0.106551 1.130948 -25.003094
v 0.362991 1.433300 -24.997494
v -0.106552 1.433298 -24.997494
v 0.362989 1.877290 -24.989391
v -0.106554 1.877288 -24.989395
v 0.362992 0.682169 -24.750195
v -0.106551 0.682167 -24.750195
v 0.362989 1.428510 -24.736492
v -0.106554 1.428508 -24.736496
v 0.362988 1.872490 -24.728394
v -0.106555 1.872488 -24.728394
v 0.599538 -0.428804 -24.030991
v -0.343097 -0.428807 -24.030998
v 0.599535 0.535387 -24.013290
v -0.343100 0.535384 -24.013298
v 0.362988 0.668581 -24.010792
v -0.106555 0.668580 -24.010796
v 0.362986 1.414920 -23.997093
v -0.106557 1.414918 -23.997093
v 0.362985 1.541260 -23.994793
v -0.106558 1.541258 -23.994797
v 0.599535 -0.438269 -23.515892
v -0.343100 -0.438272 -23.515896
v 0.599532 0.525922 -23.498192
v -0.343103 0.525919 -23.498196
v 0.362985 0.659116 -23.495792
v -0.106557 0.659115 -23.495796
v 0.362983 1.405450 -23.481995
v -0.106560 1.405448 -23.481995
v 0.362982 1.531790 -23.479694
v -0.106561 1.531788 -23.479694
v 0.362981 1.398630 -23.110893
v -0.106562 1.398628 -23.110893
v 0.362980 1.524970 -23.108593
v -0.106562 1.524969 -23.108597
vn -0.829279 0.032319 0.557848
vn -0.707083 0.706961 0.012970
vn 0.707083 0.706961 0.012970
vn 0.829279 0.032319 0.557848
vn 0.904508 0.307016 -0.295907
vn -0.904508 0.307016 -0.295907
vn -0.468368 -0.258461 -0.844844
vn 0.468398 -0.258461 -0.844844
vn 0.904508 -0.295938 -0.306986
vn 0.904538 -0.306925 0.295907
vn -0.904538 -0.306925 0.295907
vn -0.904508 -0.295938 -0.306986
vn -0.707205 -0.012909 0.706870
vn -0.577380 -0.587817 0.566607
vn 0.577319 -0.587848 0.566637
vn 0.707114 -0.012909 0.706961
vn 0.577380 0.566637 0.587786
vn 1.000000 0.000000 0.000000
vn -0.577349 -0.566668 -0.587817
vn 0.577349 -0.566668 -0.587817
vn -1.000000 0.000000 -0.000153
vn -0.577319 0.566668 0.587817
vn 0.577349 0.587848 -0.566637
vn -0.577319 0.587848 -0.566637
vn -0.577349 0.566637 0.587848
vn 0.577319 0.566637 0.587848
vn -0.707083 -0.706961 -0.012970
vn 0.707083 -0.706961 -0.012970
vn 0.577319 -0.587786 0.566698
vn -0.577319 -0.587786 0.566668
vn 0.684591 -0.411298 0.601764
vn -0.684591 -0.411298 0.601764
vn -0.684591 -0.388928 -0.616474
vn 0.684591 -0.388897 -0.616474
vn 0.577349 -0.566668 -0.587786
vn -0.577349 -0.566668 -0.587786
vn -0.577319 0.587786 -0.566698
vn 0.577319 0.587786 -0.566698
g B_HT.1_ShapeIndexedFaceS.042_Material.044
usemtl Material.044
s 1
f 19//1 9//2 10//3
f 19//1 10//3 20//4
f 32//5 31//6 29//7
f 32//5 29//7 30//8
f 10//3 12//9 22//10
f 10//3 22//10 20//4
f 21//11 11//12 9//2
f 21//11 9//2 19//1
f 3//13 7//14 8//15
f 3//13 8//15 4//16
f 12//9 11//12 21//11
f 12//9 21//11 22//10
f 2//17 6//18 12//9
f 2//17 12//9 10//3
f 8//15 7//14 13//19
f 8//15 13//19 14//20
f 5//21 1//22 9//2
f 5//21 9//2 11//12
f 1//22 2//17 10//3
f 1//22 10//3 9//2
f 4//16 8//15 6//18
f 4//16 6//18 2//17
f 8//15 14//20 12//9
f 8//15 12//9 6//18
f 14//20 13//19 11//12
f 14//20 11//12 12//9
f 13//19 7//14 5//21
f 13//19 5//21 11//12
f 1//22 5//21 7//14
f 1//22 7//14 3//13
f 2//17 1//22 3//13
f 2//17 3//13 4//16
f 26//23 25//24 15//25
f 26//23 15//25 16//26
f 29//7 31//6 21//11
f 29//7 21//11 19//1
f 33//27 34//28 24//29
f 33//27 24//29 23//30
f 32//5 30//8 20//4
f 32//5 20//4 22//10
f 18//31 17//32 19//1
f 18//31 19//1 20//4
f 17//32 27//33 29//7
f 17//32 29//7 19//1
f 27//33 28//34 30//8
f 27//33 30//8 29//7
f 28//34 18//31 20//4
f 28//34 20//4 30//8
f 16//26 15//25 17//32
f 16//26 17//32 18//31
f 15//25 25//24 27//33
f 15//25 27//33 17//32
f 25//24 26//23 28//34
f 25//24 28//34 27//33
f 26//23 16//26 18//31
f 26//23 18//31 28//34
f 23//30 24//29 22//10
f 23//30 22//10 21//11
f 24//29 34//28 32//5
f 24//29 32//5 22//10
f 38//35 37//36 35//37
f 38//35 35//37 36//38
f 33//27 23//30 21//11
f 33//27 21//11 31//6
f 36//38 35//37 31//6
f 36//38 31//6 32//5
f 35//37 37//36 33//27
f 35//37 33//27 31//6
f 37//36 38//35 34//28
f 37//36 34//28 33//27
f 38//35 36//38 32//5
f 38//35 32//5 34//28
o B_HT.2_ShapeIndexedFaceS.041
v 0.169049 0.149444 -30.017395
v 0.368891 0.232209 -30.015892
v -0.030795 0.232207 -30.015892
v 0.451669 0.432018 -30.012192
v 0.169048 0.432017 -30.012192
v -0.113573 0.432016 -30.012192
v 0.368890 0.631828 -30.008591
v -0.030796 0.631826 -30.008595
v 0.169047 0.714591 -30.006992
v 0.169031 0.085752 -26.551594
v 0.368873 0.168517 -26.549992
v -0.030813 0.168516 -26.549995
v 0.451651 0.368327 -26.546394
v -0.113591 0.368325 -26.546394
v 0.368872 0.568136 -26.542694
v -0.030814 0.568135 -26.542694
v 0.169029 0.650899 -26.541195
v 0.169012 0.022062 -23.085693
v 0.368855 0.104825 -23.084194
v -0.030831 0.104824 -23.084194
v 0.451632 0.304635 -23.080494
v 0.169011 0.304635 -23.080494
v -0.113609 0.304634 -23.080494
v 0.368854 0.504445 -23.076794
v -0.030832 0.504444 -23.076794
v 0.169010 0.587207 -23.075294
vn 0.000000 0.018433 -0.999817
vn 0.776360 0.011628 -0.630146
vn 0.548936 -0.537248 -0.640278
vn 0.776421 -0.011505 0.630085
vn 0.548875 -0.560381 0.620228
vn 0.000000 -0.018311 0.999817
vn 0.000000 -0.764672 -0.644398
vn 0.000000 -0.999817 -0.018372
vn 0.000000 -0.787896 0.615772
vn -0.548936 -0.537248 -0.640278
vn -0.548875 -0.560381 0.620228
vn -0.776360 0.011628 -0.630146
vn -1.000000 0.000000 0.000000
vn -0.776421 -0.011505 0.630085
vn -0.548997 0.560503 -0.619983
vn -0.548936 0.537248 0.640278
vn 0.000000 0.787805 -0.615894
vn 0.000000 0.999817 0.018372
vn 0.000000 0.764672 0.644398
vn 0.548997 0.560503 -0.619983
vn 0.548936 0.537248 0.640278
g B_HT.2_ShapeIndexedFaceS.041_Material.043
usemtl Material.043
s 1
f 60//39 61//40 63//41
f 52//18 54//28 63//41
f 52//18 63//41 61//40
f 44//42 46//43 54//28
f 44//42 54//28 52//18
f 43//44 46//43 44//42
f 60//39 63//41 64//45
f 54//28 55//46 64//45
f 54//28 64//45 63//41
f 46//43 47//47 55//46
f 46//43 55//46 54//28
f 43//44 47//47 46//43
f 60//39 64//45 62//48
f 55//46 53//27 62//48
f 55//46 62//48 64//45
f 47//47 45//49 53//27
f 47//47 53//27 55//46
f 43//44 45//49 47//47
f 60//39 62//48 59//50
f 53//27 51//51 59//50
f 53//27 59//50 62//48
f 45//49 42//52 51//51
f 45//49 51//51 53//27
f 43//44 42//52 45//49
f 60//39 59//50 57//53
f 51//51 49//2 57//53
f 51//51 57//53 59//50
f 42//52 40//54 49//2
f 42//52 49//2 51//51
f 43//44 40//54 42//52
f 60//39 57//53 56//55
f 49//2 48//56 56//55
f 49//2 56//55 57//53
f 40//54 39//57 48//56
f 40//54 48//56 49//2
f 43//44 39//57 40//54
f 60//39 56//55 58//58
f 48//56 50//3 58//58
f 48//56 58//58 56//55
f 39//57 41//59 50//3
f 39//57 50//3 48//56
f 41//59 39//57 43//44
f 60//39 58//58 61//40
f 50//3 52//18 61//40
f 50//3 61//40 58//58
f 41//59 44//42 52//18
f 41//59 52//18 50//3
f 43//44 44//42 41//59
