# Blender3D v249 OBJ File: 
# www.blender3d.org
mtllib B_TR.mtl
v 0.007111 1.204470 -4.227379
v 0.007111 1.204470 -5.560719
v 0.553903 1.095697 -4.227379
v 0.553903 1.095697 -5.560719
v -0.539684 1.095703 -4.227379
v -0.539684 1.095703 -5.560719
v 1.017455 0.785964 -4.227379
v 1.017455 0.785964 -5.560719
v -1.003235 0.785975 -4.227379
v -1.003235 0.785975 -5.560719
v 0.007107 0.554373 -2.894050
v 0.007107 0.554373 -4.227379
v 0.007107 0.554373 -5.560719
v 0.007107 0.554373 -6.330659
v 0.007107 0.554373 -7.213999
v 0.007107 0.554373 -7.351079
v 0.000003 0.552960 -6.328749
v 0.000003 0.552960 -7.215899
v 0.221790 0.511668 -6.388179
v 0.221790 0.511668 -7.156469
v -0.221784 0.508845 -6.388179
v -0.221784 0.508845 -7.156469
v 0.305120 0.495092 -2.894050
v 0.305120 0.495092 -4.227379
v 0.305120 0.495092 -5.560719
v 0.305120 0.495092 -6.471509
v 0.305120 0.495092 -7.073139
v 0.305120 0.495092 -7.351079
v -0.290906 0.495095 -2.894050
v -0.290906 0.495095 -4.227379
v -0.290906 0.495095 -5.560719
v -0.290906 0.495095 -6.457299
v -0.290906 0.495095 -7.087349
v -0.290906 0.495095 -7.351079
v 0.384150 0.442285 -6.550539
v 0.384150 0.442285 -6.994109
v -0.384144 0.432797 -6.550539
v -0.384144 0.432797 -6.994109
v 0.443577 0.402577 -6.772329
v -0.443571 0.393089 -6.772329
v 0.557763 0.326280 -2.894050
v 0.557763 0.326280 -4.227379
v 0.557763 0.326280 -5.560719
v 0.557763 0.326279 -7.351079
v -0.543551 0.326286 -2.894050
v -0.543551 0.326286 -4.227379
v -0.543551 0.326286 -5.560719
v -0.543551 0.326286 -7.351079
v 1.327182 0.322412 -4.227379
v 1.327182 0.322412 -5.560719
v -1.312968 0.322427 -4.227379
v -1.312968 0.322427 -5.560719
v 0.726572 0.073636 -2.894050
v 0.726572 0.073636 -4.227379
v 0.726572 0.073636 -5.560719
v 0.726572 0.073636 -7.351079
v -0.712363 0.073644 -2.894050
v -0.712363 0.073644 -4.227379
v -0.712363 0.073644 -5.560719
v -0.712363 0.073644 -7.351079
v 1.435949 -0.224381 -4.227379
v 1.435949 -0.224381 -5.560719
v 0.785849 -0.224378 -2.894050
v 0.785849 -0.224378 -4.227379
v 0.785849 -0.224378 -5.560719
v 0.785849 -0.224378 -7.351079
v 0.007103 -0.224373 -2.894050
v 0.007103 -0.224373 -7.351079
v -0.771643 -0.224369 -2.894050
v -0.771643 -0.224369 -4.227379
v -0.771643 -0.224369 -5.560719
v -0.771643 -0.224369 -7.351079
v -1.421741 -0.224365 -4.227379
v -1.421741 -0.224365 -5.560719
v 0.726568 -0.522391 -2.894050
v 0.726568 -0.522391 -4.227379
v 0.726568 -0.522391 -5.560719
v 0.726568 -0.522391 -7.351079
v -0.712367 -0.522383 -2.894050
v -0.712367 -0.522383 -4.227379
v -0.712367 -0.522383 -5.560719
v -0.712367 -0.522383 -7.351079
v 1.327176 -0.771175 -4.227379
v 1.327176 -0.771175 -5.560719
v -1.312974 -0.771160 -4.227379
v -1.312974 -0.771160 -5.560719
v 0.557757 -0.775033 -2.894050
v 0.557757 -0.775033 -4.227379
v 0.557757 -0.775033 -5.560719
v 0.557757 -0.775033 -7.351079
v -0.543557 -0.775027 -2.894050
v -0.543557 -0.775027 -4.227379
v -0.543557 -0.775027 -5.560719
v -0.543557 -0.775027 -7.351079
v -0.443578 -0.841832 -6.772329
v 0.443569 -0.851330 -6.772329
v -0.384152 -0.881540 -6.550539
v -0.384152 -0.881540 -6.994109
v 0.384142 -0.891037 -6.550539
v 0.384142 -0.891037 -6.994109
v 0.305112 -0.943843 -2.894050
v 0.305112 -0.943843 -4.227379
v 0.305112 -0.943843 -5.560719
v 0.305112 -0.943843 -6.471509
v 0.305112 -0.943843 -7.073139
v 0.305112 -0.943843 -7.351079
v -0.290914 -0.943839 -2.894050
v -0.290914 -0.943839 -4.227379
v -0.290914 -0.943839 -5.560719
v -0.290914 -0.943839 -6.457299
v -0.290914 -0.943839 -7.087349
v -0.290914 -0.943839 -7.351079
v -0.221792 -0.957589 -6.388179
v -0.221792 -0.957589 -7.156469
v 0.221782 -0.960417 -6.388179
v 0.221782 -0.960417 -7.156469
v -0.000005 -1.001710 -6.328749
v -0.000005 -1.001710 -7.215899
v 0.007098 -1.003120 -2.894050
v 0.007099 -1.003120 -4.227379
v 0.007099 -1.003120 -5.560719
v 0.007099 -1.003120 -6.330659
v 0.007099 -1.003120 -7.213999
v 0.007099 -1.003120 -7.351079
v 1.017443 -1.234726 -4.227379
v 1.017443 -1.234726 -5.560719
v -1.003247 -1.234714 -4.227379
v -1.003247 -1.234714 -5.560719
v 0.553888 -1.544453 -4.227379
v 0.553888 -1.544453 -5.560719
v -0.539698 -1.544447 -4.227379
v -0.539698 -1.544447 -5.560719
v 0.007095 -1.653210 -4.227379
v 0.007095 -1.653210 -5.560719
vn 0.320078 -0.868954 0.377361
vn -0.330241 -0.847255 -0.415998
vn 0.565081 -0.689901 0.452406
vn -0.440657 -0.892850 0.092624
vn 0.545183 -0.622639 0.561296
vn -0.607685 -0.376598 0.699179
vn 0.213843 -0.943663 0.252388
vn 0.250710 -0.892300 0.375347
vn -0.526017 -0.458785 -0.716056
vn 0.607654 -0.376598 -0.699179
vn 0.594714 0.647298 -0.476730
vn 0.277322 0.757408 -0.591052
vn 0.276223 0.747215 -0.604419
vn 0.294656 -0.465438 -0.834559
vn -0.022370 -0.931364 -0.363384
vn 0.428022 -0.634999 0.643055
vn 0.217933 -0.742546 0.633320
vn 0.289285 0.632099 0.718833
vn 0.277322 0.757408 0.591052
vn 0.473739 0.620808 0.624592
vn 0.594714 -0.647298 0.476730
vn -0.217933 -0.742546 -0.633320
vn -0.369335 0.469955 -0.801660
vn -0.035981 0.881191 -0.471358
vn -0.473739 0.620808 -0.624592
vn -0.330241 0.847255 0.415998
vn -0.277322 0.757439 0.591052
vn -0.369335 0.469955 0.801660
vn -0.384014 -0.587207 0.712516
vn 0.245857 -0.587298 0.771111
vn 0.037721 -0.560167 0.827479
vn 0.200507 0.698050 0.687368
vn 0.184881 0.700247 0.689535
vn 0.198096 0.819636 -0.537492
vn 0.182012 0.551530 -0.814020
vn 0.119572 -0.601672 -0.789727
vn 0.117374 -0.891018 -0.438490
vn 0.000000 0.000000 1.000000
vn -0.388104 0.840785 0.377361
vn -0.054720 0.825770 0.561296
vn -0.628254 -0.680319 0.377361
vn -0.388104 -0.840785 0.377361
vn -0.054720 0.825770 -0.561296
vn 0.265419 0.783868 -0.561296
vn 0.000000 0.000000 -1.000000
vn -0.545183 -0.622608 -0.561296
vn -0.741966 -0.366588 -0.561296
vn 0.366588 -0.741966 -0.561296
vn 0.054720 -0.825770 -0.561296
vn 0.294900 0.800623 0.521531
vn -0.000092 0.890896 0.454146
vn 0.825770 0.054720 -0.561296
vn 0.783868 -0.265419 -0.561296
vn 0.250496 0.892209 0.375713
vn 0.545183 0.622608 -0.561296
vn -0.783868 -0.265419 0.561296
vn 0.623859 0.712455 0.321146
vn 0.741966 0.366588 -0.561296
vn -0.825770 -0.054720 -0.561296
vn 0.741966 -0.366588 0.561296
vn 0.825770 -0.054750 0.561296
vn -0.069460 -0.698508 0.712180
vn 0.783868 0.265419 0.561296
vn 0.000000 -0.890896 0.454176
vn -0.825770 0.054750 0.561296
vn -0.783868 0.265419 -0.561296
vn -0.265419 -0.783868 -0.561296
vn 0.622608 -0.545183 -0.561296
vn -0.741966 0.366588 0.561296
vn -0.622608 0.545183 -0.561296
vn -0.545183 0.622639 0.561296
vn -0.366588 0.741966 -0.561296
vn -0.453658 -0.808252 0.375347
vn 0.198431 -0.977142 -0.076022
vn -0.311319 -0.311319 0.897824
vn -0.357585 0.774651 0.521531
vn 0.444807 0.543046 0.712180
vn -0.440626 0.892880 -0.092624
vn -0.495102 0.495102 0.713920
vn 0.028779 0.997650 0.062105
vn 0.783868 -0.265419 0.561296
vn 0.592059 0.039247 0.804895
vn 0.531968 -0.262825 0.804895
vn 0.190283 -0.562029 0.804895
vn -0.190313 -0.562029 -0.804895
vn -0.262825 -0.531968 0.804895
vn -0.622639 -0.545183 0.561296
vn -0.054750 -0.825770 0.561296
vn -0.741966 -0.366588 0.561296
vn -0.562029 -0.190283 0.804895
vn -0.366588 -0.741966 -0.561296
vn -0.446425 -0.390881 -0.804895
vn -0.592059 -0.039247 0.804895
vn -0.310495 0.628468 -0.713157
vn -0.224799 0.663961 0.713157
vn -0.783868 0.265419 0.561296
vn -0.531968 0.262825 0.804895
vn 0.741966 -0.366588 -0.561296
vn 0.390881 -0.446425 -0.804895
vn -0.390881 0.446425 -0.804895
vn -0.224799 0.663961 -0.713157
vn 0.039247 0.592059 0.804895
vn 0.310495 0.628468 0.713157
vn 0.262825 -0.531968 -0.804895
vn 0.622639 0.545183 0.561296
vn 0.741966 0.366588 0.561296
vn 0.562029 0.190283 0.804895
vn 0.592059 -0.039247 -0.804895
vn 0.783868 0.265419 -0.561296
vn 0.531968 0.262825 -0.804895
vn 0.825770 0.054750 -0.561296
vn -0.562029 0.190313 -0.804895
vn 0.446425 0.390881 -0.804895
vn 0.310495 0.628468 -0.713157
vn 0.224799 0.663961 -0.713157
vn -0.741966 0.366588 -0.561296
vn 0.054750 0.825770 -0.561296
vn -0.039247 0.592059 -0.804895
vn 0.265419 -0.783868 -0.561296
vn 0.054750 -0.825770 -0.561296
vn -0.592059 0.039247 -0.804895
vn -0.825770 -0.054750 -0.561296
vn -0.783868 -0.265419 -0.561296
vn -0.531968 -0.262825 -0.804895
vn -0.039247 -0.592059 -0.804895
vn 0.562029 -0.190313 -0.804895
usemtl Material.022
s 1
f 34//1 38//2 48//3
f 48//3 38//2 40//4
f 48//3 40//4 47//5
f 47//5 40//4 37//6
f 47//5 37//6 32//7
f 47//5 32//7 31//8
f 38//2 34//1 33//9
f 36//10 100//11 105//12
f 36//10 105//12 116//13
f 36//10 116//13 20//14
f 36//10 20//14 27//15
f 26//16 19//17 115//18
f 26//16 115//18 104//19
f 26//16 104//19 99//20
f 26//16 99//20 35//21
f 33//9 22//22 114//23
f 33//9 114//23 111//24
f 33//9 111//24 98//25
f 33//9 98//25 38//2
f 37//6 97//26 110//27
f 37//6 110//27 113//28
f 37//6 113//28 21//29
f 37//6 21//29 32//7
f 14//30 17//31 117//32
f 14//30 117//32 122//33
f 14//30 122//33 115//18
f 14//30 115//18 19//17
f 20//14 116//13 123//34
f 20//14 123//34 118//35
f 20//14 118//35 18//36
f 20//14 18//36 15//37
f 34//1 48//3 68//38
f 116//13 105//12 106//39
f 116//13 106//39 124//40
f 116//13 124//40 123//34
f 44//41 28//42 68//38
f 124//40 106//39 68//38
f 119//43 107//44 67//45
f 41//46 53//47 67//45
f 29//48 11//49 67//45
f 109//50 121//51 117//32
f 109//50 117//32 113//28
f 109//50 113//28 110//27
f 117//32 121//51 122//33
f 69//52 57//53 67//45
f 112//54 124//40 68//38
f 107//44 91//55 67//45
f 56//56 44//41 68//38
f 94//57 112//54 68//38
f 91//55 79//58 67//45
f 53//47 63//59 67//45
f 60//60 72//61 68//38
f 31//8 32//7 21//29
f 31//8 21//29 17//31
f 31//8 17//31 14//30
f 31//8 14//30 13//62
f 82//63 94//57 68//38
f 79//58 69//52 67//45
f 48//3 60//60 68//38
f 16//64 34//1 68//38
f 66//65 56//56 68//38
f 72//61 82//63 68//38
f 63//59 75//66 67//45
f 11//49 23//67 67//45
f 45//68 29//48 67//45
f 57//53 45//68 67//45
f 78//69 66//65 68//38
f 75//66 87//70 67//45
f 20//14 15//37 16//64
f 20//14 16//64 28//42
f 20//14 28//42 27//15
f 28//42 16//64 68//38
f 90//71 78//69 68//38
f 87//70 101//72 67//45
f 23//67 41//46 67//45
f 106//39 90//71 68//38
f 101//72 119//43 67//45
f 25//73 26//16 35//21
f 25//73 35//21 39//74
f 25//73 39//74 44//41
f 25//73 44//41 43//75
f 28//42 44//41 39//74
f 28//42 39//74 36//10
f 28//42 36//10 27//15
f 115//18 122//33 121//51
f 115//18 121//51 103//76
f 115//18 103//76 104//19
f 112//54 111//24 114//23
f 112//54 114//23 118//35
f 112//54 118//35 123//34
f 112//54 123//34 124//40
f 109//50 97//26 93//77
f 93//77 97//26 95//78
f 93//77 95//78 94//57
f 94//57 95//78 98//25
f 94//57 98//25 111//24
f 94//57 111//24 112//54
f 97//26 109//50 110//27
f 34//1 16//64 18//36
f 34//1 18//36 22//22
f 34//1 22//22 33//9
f 18//36 16//64 15//37
f 13//62 14//30 19//17
f 13//62 19//17 26//16
f 13//62 26//16 25//73
f 103//76 89//79 96//80
f 103//76 96//80 99//20
f 103//76 99//20 104//19
f 89//79 90//71 96//80
f 96//80 90//71 106//39
f 96//80 106//39 100//11
f 100//11 106//39 105//12
f 59//81 71//82 72//61
f 59//81 72//61 60//60
f 59//81 47//5 52//83
f 47//5 10//5 52//83
f 47//5 31//8 6//84
f 47//5 6//84 10//5
f 7//46 3//85 4//86
f 7//46 4//86 8//87
f 31//8 13//62 6//84
f 13//62 2//88 6//84
f 13//62 25//73 4//86
f 13//62 4//86 2//88
f 25//73 43//75 4//86
f 43//75 8//87 4//86
f 43//75 55//89 50//90
f 43//75 50//90 8//87
f 41//46 23//67 24//91
f 41//46 24//91 42//92
f 55//89 65//93 50//90
f 65//93 62//65 50//90
f 129//94 125//70 126//71
f 129//94 126//71 130//95
f 65//93 77//96 84//97
f 65//93 84//97 62//65
f 45//68 57//53 58//98
f 45//68 58//98 46//99
f 77//96 89//79 84//97
f 89//79 126//71 84//97
f 101//72 87//70 88//100
f 101//72 88//100 102//101
f 89//79 103//76 130//95
f 89//79 130//95 126//71
f 103//76 121//51 134//102
f 103//76 134//102 130//95
f 121//51 109//50 134//102
f 109//50 132//103 134//102
f 5//104 9//68 10//5
f 5//104 10//5 6//84
f 109//50 93//77 132//103
f 93//77 128//105 132//103
f 93//77 81//106 86//107
f 93//77 86//107 128//105
f 81//106 71//82 86//107
f 71//82 74//61 86//107
f 89//79 77//96 78//69
f 89//79 78//69 90//71
f 71//82 59//81 52//83
f 71//82 52//83 74//61
f 57//53 69//52 70//108
f 57//53 70//108 58//98
f 70//108 80//109 85//110
f 70//108 85//110 73//111
f 125//70 83//112 84//97
f 125//70 84//97 126//71
f 80//109 92//113 85//110
f 92//113 127//55 85//110
f 92//113 108//114 131//115
f 92//113 131//115 127//55
f 87//70 75//66 76//116
f 87//70 76//116 88//100
f 108//114 120//117 133//118
f 108//114 133//118 131//115
f 29//48 45//68 46//99
f 29//48 46//99 30//119
f 120//117 102//101 133//118
f 102//101 129//94 133//118
f 102//101 88//100 129//94
f 88//100 125//70 129//94
f 3//85 1//120 2//88
f 3//85 2//88 4//86
f 88//100 76//116 83//112
f 88//100 83//112 125//70
f 76//116 64//121 83//112
f 64//121 61//122 83//112
f 64//121 54//123 49//124
f 64//121 49//124 61//122
f 77//96 65//93 66//65
f 77//96 66//65 78//69
f 54//123 42//92 49//124
f 42//92 7//46 49//124
f 23//67 11//49 12//125
f 23//67 12//125 24//91
f 42//92 24//91 3//85
f 42//92 3//85 7//46
f 83//112 61//122 62//65
f 83//112 62//65 84//97
f 1//120 3//85 12//125
f 3//85 24//91 12//125
f 5//104 1//120 12//125
f 5//104 12//125 30//119
f 75//66 63//59 64//121
f 75//66 64//121 76//116
f 30//119 46//99 5//104
f 46//99 9//68 5//104
f 46//99 58//98 51//126
f 46//99 51//126 9//68
f 58//98 70//108 51//126
f 70//108 73//111 51//126
f 51//126 73//111 74//61
f 51//126 74//61 52//83
f 71//82 81//106 82//63
f 71//82 82//63 72//61
f 73//111 85//110 86//107
f 73//111 86//107 74//61
f 65//93 55//89 56//56
f 65//93 56//56 66//65
f 69//52 79//58 80//109
f 69//52 80//109 70//108
f 61//122 49//124 50//90
f 61//122 50//90 62//65
f 81//106 93//77 94//57
f 81//106 94//57 82//63
f 63//59 53//47 54//123
f 63//59 54//123 64//121
f 85//110 127//55 128//105
f 85//110 128//105 86//107
f 79//58 91//55 92//113
f 79//58 92//113 80//109
f 1//120 5//104 6//84
f 1//120 6//84 2//88
f 47//5 59//81 60//60
f 47//5 60//60 48//3
f 127//55 131//115 132//103
f 127//55 132//103 128//105
f 55//89 43//75 44//41
f 55//89 44//41 56//56
f 91//55 107//44 108//114
f 91//55 108//114 92//113
f 11//49 29//48 30//119
f 11//49 30//119 12//125
f 49//124 7//46 8//87
f 49//124 8//87 50//90
f 53//47 41//46 42//92
f 53//47 42//92 54//123
f 131//115 133//118 134//102
f 131//115 134//102 132//103
f 107//44 119//43 120//117
f 107//44 120//117 108//114
f 9//68 51//126 52//83
f 9//68 52//83 10//5
f 133//118 129//94 130//95
f 133//118 130//95 134//102
f 119//43 101//72 102//101
f 119//43 102//101 120//117
f 21//29 113//28 17//31
f 113//28 117//32 17//31
f 18//36 118//35 114//23
f 18//36 114//23 22//22
f 38//2 98//25 95//78
f 38//2 95//78 40//4
f 35//21 99//20 96//80
f 35//21 96//80 39//74
f 40//4 95//78 97//26
f 40//4 97//26 37//6
f 39//74 96//80 100//11
f 39//74 100//11 36//10
