# Blender3D v249 OBJ File: ATR.blend
# www.blender3d.org
mtllib L_AFE.mtl
v -4.169085 -3.170580 31.281839
v -3.946851 -3.170581 31.281828
v -3.485182 -3.170582 31.281807
v -3.023513 -3.170584 31.281784
v -2.801279 -3.170584 31.281775
v -4.169154 -3.168529 29.804111
v -3.946920 -3.168530 29.804100
v -3.485251 -3.168531 29.804079
v -3.023582 -3.168533 29.804056
v -2.801348 -3.168534 29.804047
v -4.169081 -1.908607 31.283594
v -3.946847 -1.908608 31.283583
v -3.485178 -1.908609 31.283562
v -3.023509 -1.908610 31.283539
v -2.801275 -1.908611 31.283529
v -4.169150 -1.906546 29.805864
v -3.946916 -1.906547 29.805855
v -3.485247 -1.906548 29.805834
v -3.023578 -1.906549 29.805811
v -2.801344 -1.906550 29.805801
v -4.408514 -1.568355 31.284079
v -3.946846 -1.568357 31.284056
v -3.485177 -1.568358 31.284035
v -3.023508 -1.568359 31.284012
v -2.561839 -1.568361 31.283991
v -4.408584 -1.566304 29.806351
v -3.946915 -1.566306 29.806328
v -3.485246 -1.566307 29.806307
v -3.023577 -1.566308 29.806284
v -2.561908 -1.566310 29.806263
v -4.408509 0.354494 31.286753
v -3.946840 0.354493 31.286732
v -3.485171 0.354491 31.286709
v -3.023502 0.354490 31.286688
v -2.561833 0.354489 31.286667
v -4.408578 0.356549 29.809025
v -3.946909 0.356548 29.809004
v -3.485240 0.356546 29.808981
v -3.023571 0.356545 29.808960
v -2.561902 0.356543 29.808937
v -4.408505 1.529523 31.288387
v -3.946836 1.529522 31.288364
v -3.485167 1.529521 31.288343
v -3.023498 1.529519 31.288322
v -2.561829 1.529518 31.288300
v -4.408575 1.531574 29.810659
v -3.946906 1.531573 29.810637
v -3.485237 1.531572 29.810616
v -3.023567 1.531570 29.810595
v -2.561899 1.531569 29.810572
vn -0.000031 -0.706107 -0.708060
vn 0.408185 -0.407086 -0.817072
vn 0.577349 -0.578143 0.576495
vn 0.000031 -0.708060 0.706107
vn 0.000000 -0.708060 0.706107
vn -0.408246 -0.815912 -0.409345
vn -0.816462 -0.408795 0.407697
vn 0.000031 -0.001373 0.999969
vn 0.707114 -0.000977 0.707053
vn -0.707053 -0.000977 0.707114
vn 0.707053 0.000977 -0.707114
vn -0.000031 0.001373 -0.999969
vn -0.707114 0.000977 -0.707053
vn 0.657857 0.207251 0.724021
vn -0.511338 0.160710 0.844203
vn 0.844264 0.267922 -0.464125
vn -0.749290 0.238075 -0.617908
vn 0.534989 0.232490 0.812220
vn -0.634144 0.275948 0.722282
vn 0.571917 0.117924 -0.811762
vn -0.678060 0.139470 -0.721641
vn 0.000031 0.706107 0.708060
vn 0.666677 0.666189 0.334208
vn -0.666616 0.332377 0.667135
vn 0.577319 0.578143 -0.576556
vn -0.000031 0.708060 -0.706107
vn -0.333354 0.667592 -0.665700
usemtl Material.019
s 1
f 42//1 41//2 46//3
f 42//1 46//3 47//4
f 43//1 42//1 47//4
f 43//1 47//4 48//5
f 44//1 43//1 48//5
f 44//1 48//5 49//4
f 45//6 44//1 49//4
f 45//6 49//4 50//7
f 37//8 47//4 46//3
f 37//8 46//3 36//9
f 38//8 48//5 47//4
f 38//8 47//4 37//8
f 39//8 49//4 48//5
f 39//8 48//5 38//8
f 40//10 50//7 49//4
f 40//10 49//4 39//8
f 31//11 36//9 46//3
f 31//11 46//3 41//2
f 32//12 31//11 41//2
f 32//12 41//2 42//1
f 33//12 32//12 42//1
f 33//12 42//1 43//1
f 34//12 33//12 43//1
f 34//12 43//1 44//1
f 35//13 45//6 50//7
f 35//13 50//7 40//10
f 35//13 34//12 44//1
f 35//13 44//1 45//6
f 27//8 37//8 36//9
f 27//8 36//9 26//14
f 28//8 38//8 37//8
f 28//8 37//8 27//8
f 29//8 39//8 38//8
f 29//8 38//8 28//8
f 30//15 40//10 39//8
f 30//15 39//8 29//8
f 21//16 26//14 36//9
f 21//16 36//9 31//11
f 22//12 21//16 31//11
f 22//12 31//11 32//12
f 23//12 22//12 32//12
f 23//12 32//12 33//12
f 24//12 23//12 33//12
f 24//12 33//12 34//12
f 25//17 35//13 40//10
f 25//17 40//10 30//15
f 25//17 24//12 34//12
f 25//17 34//12 35//13
f 17//8 27//8 16//18
f 27//8 26//14 16//18
f 18//8 28//8 27//8
f 18//8 27//8 17//8
f 19//8 29//8 28//8
f 19//8 28//8 18//8
f 20//19 30//15 29//8
f 20//19 29//8 19//8
f 11//20 16//18 21//16
f 16//18 26//14 21//16
f 12//12 11//20 22//12
f 11//20 21//16 22//12
f 13//12 12//12 22//12
f 13//12 22//12 23//12
f 14//12 13//12 23//12
f 14//12 23//12 24//12
f 15//21 25//17 20//19
f 25//17 30//15 20//19
f 15//21 14//12 24//12
f 15//21 24//12 25//17
f 7//22 17//8 16//18
f 7//22 16//18 6//23
f 8//22 18//8 17//8
f 8//22 17//8 7//22
f 9//22 19//8 18//8
f 9//22 18//8 8//22
f 10//24 20//19 19//8
f 10//24 19//8 9//22
f 1//25 6//23 11//20
f 6//23 16//18 11//20
f 2//26 1//25 11//20
f 2//26 11//20 12//12
f 6//23 1//25 2//26
f 6//23 2//26 7//22
f 3//26 2//26 12//12
f 3//26 12//12 13//12
f 3//26 8//22 7//22
f 3//26 7//22 2//26
f 4//26 3//26 13//12
f 4//26 13//12 14//12
f 4//26 9//22 8//22
f 4//26 8//22 3//26
f 5//27 15//21 10//24
f 15//21 20//19 10//24
f 5//27 4//26 14//12
f 5//27 14//12 15//21
f 5//27 10//24 9//22
f 5//27 9//22 4//26
