# Blender3D v249 OBJ File: ATR.blend
# www.blender3d.org
mtllib L_HFR.mtl
v -4.691795 -2.827106 11.992736
v -2.286635 -2.827116 11.992746
v -4.691792 -2.705500 11.581568
v -2.286633 -2.705511 11.581578
v -3.526297 -2.374091 11.679507
v -3.487249 -2.356140 11.684867
v -3.822094 -2.236792 11.720128
v -3.866327 -2.216435 11.726151
v -3.186264 -2.216438 11.726153
v -3.526285 -1.645285 9.748634
v -3.170225 -2.173431 11.738935
v -3.526273 -0.981737 7.524051
v -3.866316 -1.510315 9.788894
v -3.186253 -1.510318 9.788897
v -3.866303 -0.846767 7.564312
v -3.186240 -0.846770 7.564314
v -3.526272 -0.751332 7.592782
v -3.986297 -1.891912 11.822186
v -3.696288 -0.683845 7.612906
v -3.356256 -0.683846 7.612908
v -4.007172 -1.835851 11.838667
v -3.045418 -1.835855 11.838671
v -3.062988 -1.788711 11.852695
v -4.007161 -1.184467 9.886082
v -3.045407 -1.184471 9.886086
v -4.007148 -0.520923 7.661510
v -3.766709 -0.520924 7.661510
v -3.526271 -0.520925 7.661511
v -3.285832 -0.520926 7.661512
v -3.045394 -0.520927 7.661513
v -3.696287 -0.358001 7.710104
v -3.356255 -0.358003 7.710106
v -3.888303 -1.514366 11.933763
v -3.866325 -1.455349 11.951265
v -3.186262 -1.455352 11.951268
v -3.526271 -0.290517 7.730231
v -3.233692 -1.433488 11.957706
v -3.866314 -0.858623 9.983271
v -3.186251 -0.858626 9.983274
v -3.866301 -0.195077 7.758699
v -3.186238 -0.195080 7.758702
v -3.577866 -1.321513 11.990831
v -3.526293 -1.297752 11.997896
v -3.526282 -0.723655 10.023534
v -3.526270 -0.060110 7.798962
v -4.691785 0.232676 12.897655
v -2.286625 0.232665 12.897665
v -4.691783 0.354299 12.486387
v -2.286623 0.354288 12.486398
vn 0.000000 -0.285836 0.958251
vn 0.000000 -0.285806 0.958281
vn 0.000000 -0.285806 0.958251
vn -0.272835 -0.577288 0.769585
vn -0.716514 -0.667684 -0.201880
vn -0.887753 -0.412152 0.204962
vn 0.685476 -0.205359 0.698508
vn 0.999969 -0.000153 0.001923
vn 0.663869 -0.438887 0.605487
vn -0.334635 -0.223884 0.915342
vn -0.999969 -0.000916 0.001679
vn -0.772423 0.117283 0.624165
vn 0.000702 0.231056 0.972930
vn 0.000427 0.948027 0.318125
vn 0.337230 0.537461 0.772912
vn 0.506272 -0.644032 0.573473
vn 0.716544 -0.668233 -0.199896
vn 0.346965 -0.882382 0.317728
vn -0.495224 0.213843 0.842006
vn -0.757591 0.617969 0.210059
vn -0.336924 0.535874 0.774132
vn -0.000763 -0.736015 0.676931
vn -0.000397 -0.959014 -0.283303
vn -0.347575 -0.882717 0.316111
vn 0.494552 0.213874 0.842402
vn 0.757561 0.618793 0.207739
vn 0.773095 0.118503 0.623066
vn -0.301675 0.032289 0.952849
vn 0.272042 -0.139500 0.952086
vn 0.192145 -0.457564 0.868129
vn -0.182592 -0.608997 0.771844
vn 0.333323 0.828333 -0.450209
vn -0.577319 0.717368 -0.389904
vn -0.666646 -0.130558 -0.733818
vn 0.666646 -0.544755 -0.508682
vn -0.491165 0.455245 0.742607
vn -0.678579 -0.209937 0.703848
vn -0.479843 -0.669759 0.566698
vn 0.678579 -0.209937 0.703848
vn 0.411756 0.311991 0.856197
vn 0.000000 -0.924131 0.382031
vn 0.000000 0.259163 0.965819
vn 0.370800 -0.598712 0.709922
usemtl Material.011
s 1
f 28//1 31//2 27//1
f 28//1 19//1 17//1
f 28//1 17//1 20//1
f 28//1 36//3 31//2
f 28//1 20//1 29//1
f 28//1 32//2 36//3
f 28//1 27//1 19//1
f 28//1 29//1 32//2
f 35//4 39//5 23//6
f 21//7 24//8 33//9
f 22//10 25//11 11//12
f 5//13 10//14 7//15
f 34//16 38//17 42//18
f 9//19 14//20 6//21
f 43//22 44//23 37//24
f 8//25 13//26 18//27
f 9//19 6//21 4//28
f 4//28 6//21 5//13
f 4//28 5//13 3//29
f 3//29 5//13 7//15
f 3//29 7//15 8//25
f 3//29 8//25 18//27
f 3//29 18//27 21//7
f 3//29 21//7 33//9
f 48//30 3//29 33//9
f 48//30 33//9 34//16
f 48//30 34//16 42//18
f 48//30 42//18 43//22
f 49//31 48//30 43//22
f 49//31 43//22 37//24
f 49//31 37//24 35//4
f 49//31 35//4 22//10
f 35//4 23//6 22//10
f 4//28 49//31 22//10
f 4//28 22//10 11//12
f 4//28 11//12 9//19
f 1//32 2//33 4//28
f 1//32 4//28 3//29
f 2//33 47//34 4//28
f 47//34 49//31 4//28
f 1//32 46//35 47//34
f 1//32 47//34 2//33
f 46//35 48//30 49//31
f 46//35 49//31 47//34
f 1//32 3//29 46//35
f 3//29 48//30 46//35
f 23//6 39//5 25//11
f 23//6 25//11 22//10
f 18//27 13//26 24//8
f 18//27 24//8 21//7
f 37//24 44//23 39//5
f 37//24 39//5 35//4
f 6//21 14//20 10//14
f 6//21 10//14 5//13
f 42//18 38//17 44//23
f 42//18 44//23 43//22
f 7//15 10//14 13//26
f 7//15 13//26 8//25
f 11//12 25//11 14//20
f 11//12 14//20 9//19
f 33//9 24//8 38//17
f 33//9 38//17 34//16
f 16//36 30//37 20//1
f 30//37 29//1 20//1
f 25//11 39//5 30//37
f 39//5 41//38 30//37
f 30//37 41//38 32//2
f 30//37 32//2 29//1
f 24//8 13//26 26//39
f 13//26 15//40 26//39
f 14//20 25//11 30//37
f 14//20 30//37 16//36
f 26//39 15//40 19//1
f 26//39 19//1 27//1
f 39//5 44//23 45//41
f 39//5 45//41 41//38
f 41//38 45//41 32//2
f 45//41 36//3 32//2
f 10//14 14//20 16//36
f 10//14 16//36 12//42
f 44//23 38//17 45//41
f 38//17 40//43 45//41
f 45//41 40//43 36//3
f 40//43 31//2 36//3
f 12//42 16//36 20//1
f 12//42 20//1 17//1
f 13//26 10//14 15//40
f 10//14 12//42 15//40
f 15//40 12//42 17//1
f 15//40 17//1 19//1
f 38//17 24//8 26//39
f 38//17 26//39 40//43
f 40//43 26//39 31//2
f 26//39 27//1 31//2
v -2.460914 -2.658804 11.885806
v -2.074664 -2.658806 11.885808
v -2.460911 -2.445309 11.489162
v -2.074661 -2.445311 11.489164
v -2.460910 -1.926675 11.681614
v -2.074660 -1.926677 11.681615
v -2.460909 -1.524729 11.806652
v -2.074659 -1.524731 11.806654
v -2.460928 -2.056876 15.852517
v -2.074678 -2.056877 15.852519
v -2.460906 -0.706025 12.070978
v -2.074656 -0.706026 12.070980
v -2.460929 -1.757444 16.458086
v -2.074679 -1.757446 16.458088
v -2.460923 -1.332412 15.350596
v -2.074673 -1.332414 15.350598
v -2.460920 -1.217014 14.958047
v -2.074670 -1.217016 14.958048
v -2.460924 -1.320848 15.759554
v -2.074674 -1.320850 15.759556
v -2.460918 -0.985969 14.620382
v -2.074668 -0.985971 14.620384
v -2.460926 -1.183469 16.144876
v -2.074676 -1.183471 16.144878
v -2.460930 -1.382843 16.944231
v -2.074680 -1.382845 16.944233
v -2.460916 -0.661879 14.370585
v -2.074666 -0.661881 14.370586
v -2.460903 0.161844 12.324575
v -2.074653 0.161843 12.324576
v -2.460926 -0.933753 16.469038
v -2.074676 -0.933755 16.469040
v -2.460913 -0.276510 14.233301
v -2.074663 -0.276512 14.233302
v -2.460929 -0.876354 17.290791
v -2.074679 -0.876356 17.290792
v -2.460902 0.526984 12.461985
v -2.074652 0.526982 12.461986
v -2.460925 -0.596069 16.700014
v -2.074675 -0.596071 16.700016
v -2.460911 0.132468 14.221703
v -2.074661 0.132466 14.221704
v -2.460902 0.715109 12.595958
v -2.074652 0.715107 12.595959
v -2.460924 -0.203539 16.815407
v -2.074674 -0.203541 16.815409
v -2.460910 0.524998 14.337094
v -2.074660 0.524996 14.337096
v -2.460927 -0.287559 17.463881
v -2.074677 -0.287561 17.463881
v -2.460922 0.205411 16.803904
v -2.074672 0.205410 16.803905
v -2.460909 0.862655 14.568168
v -2.074659 0.862653 14.568170
v -2.460924 0.325922 17.446484
v -2.074674 0.325920 17.446486
v -2.460920 0.590808 16.666525
v -2.074670 0.590806 16.666527
v -2.460910 1.112398 14.892233
v -2.074660 1.112396 14.892235
v -2.460917 0.914898 16.416725
v -2.074667 0.914896 16.416727
v -2.460911 1.249777 15.277555
v -2.074661 1.249775 15.277557
v -2.460915 1.145942 16.079062
v -2.074665 1.145941 16.079063
v -2.460912 1.261314 15.686608
v -2.074662 1.261312 15.686610
v -2.460921 0.903984 17.240511
v -2.074671 0.903982 17.240513
v -2.460906 1.731658 14.554364
v -2.074656 1.731656 14.554365
v -2.460917 1.390101 16.865860
v -2.074667 1.390100 16.865862
v -2.460907 1.892424 15.157105
v -2.074657 1.892423 15.157107
v -2.460913 1.736659 16.359413
v -2.074663 1.736658 16.359415
v -2.460910 1.909760 15.770538
v -2.074660 1.909759 15.770539
vn -0.709738 -0.357768 0.606830
vn -0.715903 -0.561998 0.414228
vn 0.715873 -0.488632 0.498672
vn 0.709708 -0.303873 0.635548
vn -1.000000 0.000000 0.000000
vn 1.000000 0.000000 0.000000
vn -0.710959 -0.092959 -0.697012
vn -0.803125 0.107547 -0.585955
vn 0.803125 0.045228 -0.594043
vn 0.710959 -0.165807 -0.683370
vn 0.707327 -0.215278 0.673269
vn -0.707327 -0.232185 0.667623
vn -0.708975 -0.666433 0.230659
vn 0.708945 -0.647847 0.278634
vn -0.710959 0.334483 -0.618549
vn 0.707114 -0.210944 0.674856
vn -0.707114 -0.204627 0.676809
vn -0.709220 -0.701041 0.074252
vn 0.709220 -0.693136 0.128513
vn 0.710959 0.267495 -0.650319
vn 0.707083 -0.212439 0.674429
vn -0.707114 -0.214820 0.673666
vn 0.558916 -0.434980 -0.705954
vn -0.558916 -0.358196 -0.747856
vn -0.803125 -0.585955 -0.107578
vn 0.707205 -0.234046 0.667104
vn -0.707205 -0.222053 0.671194
vn 0.803125 -0.594043 -0.045259
vn -0.558916 0.600543 -0.571764
vn 0.558916 0.536973 -0.631825
vn 0.647084 0.457228 0.610034
vn -0.647114 0.059755 0.760033
vn -0.710959 -0.618519 -0.334513
vn 0.710959 -0.650319 -0.267495
vn 0.723411 0.689138 0.041932
vn -0.723380 0.663045 0.192389
vn 0.710959 -0.535844 -0.455367
vn -0.710959 -0.484909 -0.509262
vn -0.801233 0.517777 -0.299814
vn 0.710837 0.659047 -0.245582
vn -0.710837 0.680929 -0.176122
vn 0.801233 0.496872 -0.333293
usemtl Material.010
s 1
f 87//44 93//45 92//46
f 87//44 92//46 86//47
f 97//48 103//48 93//45
f 97//48 93//45 87//44
f 86//47 92//46 96//49
f 92//46 102//49 96//49
f 105//50 99//51 98//52
f 105//50 98//52 104//53
f 104//53 98//52 100//49
f 98//52 94//49 100//49
f 101//48 95//48 99//51
f 101//48 99//51 105//50
f 78//54 86//47 90//49
f 86//47 96//49 90//49
f 79//55 87//44 86//47
f 79//55 86//47 78//54
f 91//48 97//48 87//44
f 91//48 87//44 79//55
f 103//48 109//48 121//56
f 103//48 121//56 93//45
f 93//45 121//56 120//57
f 93//45 120//57 92//46
f 92//46 120//57 102//49
f 120//57 108//49 102//49
f 95//48 89//48 99//51
f 89//48 85//58 99//51
f 60//59 78//54 82//49
f 78//54 90//49 82//49
f 61//60 79//55 78//54
f 61//60 78//54 60//59
f 83//48 91//48 79//55
f 83//48 79//55 61//60
f 109//48 113//48 125//61
f 109//48 125//61 121//56
f 121//56 125//61 124//62
f 121//56 124//62 120//57
f 99//51 85//58 84//63
f 99//51 84//63 98//52
f 98//52 84//63 88//49
f 98//52 88//49 94//49
f 56//64 60//59 76//49
f 60//59 82//49 76//49
f 57//65 61//60 60//59
f 57//65 60//59 56//64
f 77//48 83//48 61//60
f 77//48 61//60 57//65
f 120//57 124//62 108//49
f 124//62 112//49 108//49
f 118//66 104//53 106//49
f 104//53 100//49 106//49
f 119//67 105//50 104//53
f 119//67 104//53 118//66
f 113//48 117//48 129//68
f 113//48 129//68 125//61
f 54//69 56//64 70//49
f 56//64 76//49 70//49
f 55//70 57//65 56//64
f 55//70 56//64 54//69
f 71//48 77//48 57//65
f 71//48 57//65 55//70
f 125//61 129//68 128//71
f 125//61 128//71 124//62
f 124//62 128//71 112//49
f 128//71 116//49 112//49
f 89//48 81//48 85//58
f 81//48 75//72 85//58
f 85//58 75//72 74//73
f 85//58 74//73 84//63
f 52//74 54//69 66//49
f 54//69 70//49 66//49
f 53//75 55//70 54//69
f 53//75 54//69 52//74
f 67//48 71//48 55//70
f 67//48 55//70 53//75
f 107//48 101//48 105//50
f 107//48 105//50 119//67
f 117//48 115//48 129//68
f 115//48 127//76 129//68
f 84//63 74//73 80//49
f 84//63 80//49 88//49
f 129//68 127//76 126//77
f 129//68 126//77 128//71
f 50//78 52//74 66//49
f 50//78 66//49 64//49
f 52//74 50//78 51//79
f 52//74 51//79 53//75
f 65//48 67//48 51//79
f 67//48 53//75 51//79
f 128//71 126//77 114//49
f 128//71 114//49 116//49
f 122//80 118//66 106//49
f 122//80 106//49 110//49
f 115//48 111//48 127//76
f 111//48 123//81 127//76
f 81//48 73//48 63//82
f 81//48 63//82 75//72
f 58//83 50//78 64//49
f 58//83 64//49 68//49
f 50//78 58//83 59//84
f 50//78 59//84 51//79
f 69//48 65//48 59//84
f 65//48 51//79 59//84
f 127//76 123//81 122//80
f 127//76 122//80 126//77
f 126//77 122//80 110//49
f 126//77 110//49 114//49
f 75//72 63//82 62//85
f 75//72 62//85 74//73
f 74//73 62//85 80//49
f 62//85 72//49 80//49
f 62//85 58//83 68//49
f 62//85 68//49 72//49
f 63//82 59//84 58//83
f 63//82 58//83 62//85
f 73//48 69//48 63//82
f 69//48 59//84 63//82
f 123//81 119//67 118//66
f 123//81 118//66 122//80
f 111//48 107//48 123//81
f 107//48 119//67 123//81
v -5.083874 -2.669812 11.882760
v -4.697614 -2.669814 11.882761
v -5.083871 -2.456317 11.486115
v -4.697611 -2.456319 11.486117
v -5.083869 -1.937683 11.678567
v -4.697610 -1.937684 11.678569
v -5.083869 -1.535737 11.803606
v -4.697608 -1.535739 11.803607
v -5.083888 -2.067884 15.849470
v -4.697628 -2.067886 15.849472
v -5.083866 -0.717032 12.067931
v -4.697606 -0.717034 12.067933
v -5.083889 -1.768452 16.455038
v -4.697629 -1.768454 16.455040
v -5.083882 -1.343420 15.347550
v -4.697622 -1.343421 15.347551
v -5.083880 -1.228022 14.955000
v -4.697620 -1.228024 14.955002
v -5.083884 -1.331856 15.756508
v -4.697624 -1.331858 15.756509
v -5.083878 -0.996977 14.617336
v -4.697618 -0.996979 14.617337
v -5.083885 -1.194477 16.141830
v -4.697625 -1.194479 16.141830
v -5.083889 -1.393851 16.941185
v -4.697629 -1.393853 16.941187
v -5.083875 -0.672887 14.367538
v -4.697616 -0.672889 14.367540
v -5.083863 0.150836 12.321528
v -4.697603 0.150835 12.321530
v -5.083885 -0.944761 16.465990
v -4.697626 -0.944762 16.465992
v -5.083873 -0.287528 14.230251
v -4.697613 -0.287529 14.230253
v -5.083889 -0.887362 17.287745
v -4.697629 -0.887364 17.287746
v -5.083862 0.515976 12.458938
v -4.697602 0.515974 12.458940
v -5.083885 -0.607077 16.696968
v -4.697625 -0.607079 16.696970
v -5.083871 0.121460 14.218656
v -4.697611 0.121458 14.218657
v -5.083862 0.704101 12.592911
v -4.697602 0.704099 12.592912
v -5.083884 -0.214557 16.812357
v -4.697624 -0.214559 16.812359
v -5.083870 0.513990 14.334048
v -4.697610 0.513988 14.334049
v -5.083887 -0.298567 17.460833
v -4.697627 -0.298568 17.460835
v -5.083882 0.194404 16.800858
v -4.697622 0.194402 16.800859
v -5.083869 0.851647 14.565121
v -4.697609 0.851645 14.565123
v -5.083884 0.314914 17.443438
v -4.697624 0.314912 17.443439
v -5.083879 0.579800 16.663479
v -4.697619 0.579798 16.663481
v -5.083869 1.101390 14.889187
v -4.697610 1.101388 14.889188
v -5.083877 0.903890 16.413679
v -4.697617 0.903888 16.413681
v -5.083871 1.238769 15.274509
v -4.697611 1.238767 15.274510
v -5.083875 1.134934 16.076015
v -4.697615 1.134933 16.076017
v -5.083872 1.250306 15.683562
v -4.697612 1.250304 15.683563
v -5.083880 0.892976 17.237465
v -4.697620 0.892974 17.237467
v -5.083865 1.720650 14.551317
v -4.697606 1.720648 14.551318
v -5.083877 1.379094 16.862814
v -4.697617 1.379092 16.862816
v -5.083867 1.881417 15.154058
v -4.697607 1.881415 15.154060
v -5.083873 1.725652 16.356367
v -4.697613 1.725650 16.356367
v -5.083870 1.898753 15.767491
v -4.697610 1.898751 15.767493
vn 0.715873 -0.488632 0.498703
vn -0.710959 -0.092959 -0.697043
vn -0.710959 0.126957 -0.691641
vn 0.710959 0.053377 -0.701163
vn -0.803125 0.283395 -0.524033
vn 0.803125 0.226630 -0.550951
vn 0.647114 0.457228 0.610034
usemtl Material.009
s 1
f 167//44 173//45 172//86
f 167//44 172//86 166//47
f 177//48 183//48 173//45
f 177//48 173//45 167//44
f 166//47 172//86 176//49
f 172//86 182//49 176//49
f 185//87 179//88 178//89
f 185//87 178//89 184//53
f 184//53 178//89 180//49
f 178//89 174//49 180//49
f 181//48 175//48 179//88
f 181//48 179//88 185//87
f 158//54 166//47 170//49
f 166//47 176//49 170//49
f 159//55 167//44 166//47
f 159//55 166//47 158//54
f 171//48 177//48 167//44
f 171//48 167//44 159//55
f 183//48 189//48 201//56
f 183//48 201//56 173//45
f 173//45 201//56 200//57
f 173//45 200//57 172//86
f 172//86 200//57 182//49
f 200//57 188//49 182//49
f 175//48 169//48 165//90
f 175//48 165//90 179//88
f 140//59 158//54 162//49
f 158//54 170//49 162//49
f 141//60 159//55 158//54
f 141//60 158//54 140//59
f 163//48 171//48 159//55
f 163//48 159//55 141//60
f 189//48 193//48 205//61
f 189//48 205//61 201//56
f 201//56 205//61 204//62
f 201//56 204//62 200//57
f 179//88 165//90 164//91
f 179//88 164//91 178//89
f 178//89 164//91 174//49
f 164//91 168//49 174//49
f 136//64 140//59 156//49
f 140//59 162//49 156//49
f 137//65 141//60 140//59
f 137//65 140//59 136//64
f 157//48 163//48 141//60
f 157//48 141//60 137//65
f 200//57 204//62 188//49
f 204//62 192//49 188//49
f 198//66 184//53 186//49
f 184//53 180//49 186//49
f 199//67 185//87 184//53
f 199//67 184//53 198//66
f 193//48 197//48 209//68
f 193//48 209//68 205//61
f 134//69 136//64 150//49
f 136//64 156//49 150//49
f 135//70 137//65 136//64
f 135//70 136//64 134//69
f 151//48 157//48 137//65
f 151//48 137//65 135//70
f 205//61 209//68 208//71
f 205//61 208//71 204//62
f 204//62 208//71 192//49
f 208//71 196//49 192//49
f 169//48 161//48 165//90
f 161//48 155//72 165//90
f 165//90 155//72 154//73
f 165//90 154//73 164//91
f 132//92 134//69 146//49
f 134//69 150//49 146//49
f 133//75 135//70 134//69
f 133//75 134//69 132//92
f 147//48 151//48 135//70
f 147//48 135//70 133//75
f 187//48 181//48 185//87
f 187//48 185//87 199//67
f 197//48 195//48 209//68
f 195//48 207//76 209//68
f 164//91 154//73 160//49
f 164//91 160//49 168//49
f 209//68 207//76 206//77
f 209//68 206//77 208//71
f 130//78 132//92 146//49
f 130//78 146//49 144//49
f 132//92 130//78 131//79
f 132//92 131//79 133//75
f 145//48 147//48 131//79
f 147//48 133//75 131//79
f 208//71 206//77 194//49
f 208//71 194//49 196//49
f 202//80 198//66 186//49
f 202//80 186//49 190//49
f 195//48 191//48 207//76
f 191//48 203//81 207//76
f 161//48 153//48 143//82
f 161//48 143//82 155//72
f 138//83 130//78 144//49
f 138//83 144//49 148//49
f 130//78 138//83 139//84
f 130//78 139//84 131//79
f 149//48 145//48 139//84
f 145//48 131//79 139//84
f 207//76 203//81 202//80
f 207//76 202//80 206//77
f 206//77 202//80 190//49
f 206//77 190//49 194//49
f 155//72 143//82 142//85
f 155//72 142//85 154//73
f 154//73 142//85 160//49
f 142//85 152//49 160//49
f 142//85 138//83 148//49
f 142//85 148//49 152//49
f 143//82 139//84 138//83
f 143//82 138//83 142//85
f 153//48 149//48 143//82
f 149//48 139//84 143//82
f 203//81 199//67 198//66
f 203//81 198//66 202//80
f 191//48 187//48 203//81
f 187//48 199//67 203//81
