# Blender v2.65 (sub 0) OBJ File: 'ATR.blend'
# www.blender.org
mtllib L_AAA.mtl
o L_WAA.12_ShapeIndexedFaceS.097
v 7.209407 1.404762 3.276116
v 7.942027 0.514658 3.248028
v 8.067979 0.627734 3.244344
v 7.077317 1.304540 3.241889
v 8.484538 -0.097964 2.991972
v 8.610490 0.015112 2.988289
v 7.771818 0.679665 2.492630
v 7.897770 0.792741 2.488948
v 7.583668 1.213326 2.392384
v 7.451578 1.113103 2.358157
v 8.314329 0.067043 2.236564
v 8.440281 0.180119 2.232892
vn -0.259590 -0.727103 0.635517
vn 0.035890 -0.835566 -0.548173
vn 0.908017 -0.173620 -0.381207
vn 0.604785 0.052126 0.794641
vn 0.188330 0.677755 0.710715
vn -0.670675 -0.093417 0.735801
vn -0.551195 -0.550798 0.626698
vn 0.573779 0.500168 0.648518
vn 0.422040 0.553056 -0.718314
vn -0.059908 0.918424 -0.390973
vn -0.918912 0.147221 -0.365886
vn -0.569750 -0.368084 -0.734733
usemtl Material.099
s 1
f 9//1 1//2 4//3
f 9//1 4//3 10//4
f 11//5 12//6 8//7
f 11//5 8//7 7//8
f 2//9 5//10 11//5
f 2//9 11//5 7//8
f 12//6 6//11 3//12
f 12//6 3//12 8//7
f 3//12 6//11 5//10
f 3//12 5//10 2//9
f 5//10 6//11 12//6
f 5//10 12//6 11//5
f 10//4 4//3 2//9
f 10//4 2//9 7//8
f 4//3 1//2 3//12
f 4//3 3//12 2//9
f 1//2 9//1 8//7
f 1//2 8//7 3//12
f 9//1 10//4 7//8
f 9//1 7//8 8//7
o L_WAA.2_ShapeIndexedFaceS.096
v 8.997853 -0.389043 4.521585
v 9.036547 -0.438328 4.501797
v 10.223743 0.587475 4.486543
v 9.651085 0.047902 4.483460
v 10.262440 0.538188 4.466755
v 9.689781 -0.001385 4.463662
v 8.246567 -0.714391 4.239425
v 8.285261 -0.763672 4.219637
v 10.678590 1.260150 4.077150
v 10.717281 1.210858 4.057362
v 10.289854 1.683093 2.264034
v 10.328542 1.633803 2.244236
v 7.942486 -0.081787 2.069725
v 7.981178 -0.131071 2.049937
v 8.397554 0.264076 1.721710
v 8.436247 0.214792 1.701912
v 9.620708 1.243571 1.673888
v 9.659402 1.194290 1.654100
v 9.010253 0.745120 1.494526
v 9.048945 0.695837 1.474734
vn 0.704947 -0.540117 0.459639
vn 0.307596 -0.274178 -0.911130
vn 0.798212 0.001953 -0.602344
vn 0.953703 -0.229041 0.194861
vn 0.322764 0.759026 0.565386
vn -0.002075 0.561449 0.827479
vn 0.178655 0.954527 -0.238563
vn 0.537522 -0.644795 0.543382
vn 0.255531 -0.353099 -0.899991
vn -0.243599 0.347270 0.905545
vn 0.327372 -0.824152 0.462111
vn 0.125889 -0.412885 -0.902005
vn -0.538102 0.106845 0.836055
vn -0.043672 -0.987915 0.148686
vn -0.190771 -0.801233 -0.567095
vn -0.848872 -0.119449 0.514847
vn -0.979553 0.050508 -0.194708
vn -0.360607 0.791192 -0.493881
vn -0.567919 0.697256 -0.437330
vn -0.722404 0.490402 -0.487411
usemtl Material.098
s 1
f 27//13 13//14 19//15
f 27//13 19//15 25//16
f 26//17 28//18 27//13
f 26//17 27//13 25//16
f 19//15 20//19 26//17
f 19//15 26//17 25//16
f 13//14 27//13 31//20
f 13//14 31//20 16//21
f 28//18 32//22 31//20
f 28//18 31//20 27//13
f 29//23 15//24 16//21
f 29//23 16//21 31//20
f 32//22 30//25 29//23
f 32//22 29//23 31//20
f 23//26 21//27 15//24
f 23//26 15//24 29//23
f 30//25 24//28 23//26
f 30//25 23//26 29//23
f 24//28 22//29 21//27
f 24//28 21//27 23//26
f 13//14 14//30 20//19
f 13//14 20//19 19//15
f 14//30 13//14 16//21
f 14//30 16//21 18//31
f 15//24 17//32 18//31
f 15//24 18//31 16//21
f 21//27 22//29 17//32
f 21//27 17//32 15//24
f 20//19 14//30 28//18
f 20//19 28//18 26//17
f 14//30 18//31 32//22
f 14//30 32//22 28//18
f 18//31 17//32 30//25
f 18//31 30//25 32//22
f 17//32 22//29 24//28
f 17//32 24//28 30//25
o L_WAA.1_ShapeIndexedFaceS.084
v 8.787883 -0.221320 2.597086
v 8.084464 -0.218471 2.594771
v 8.790738 0.482097 2.594701
v 8.087321 0.484947 2.592375
v 9.464103 0.473634 0.975190
v 8.796066 0.476340 0.972985
v 9.461283 -0.229825 0.967022
v 8.793243 -0.227114 0.964819
v 8.520509 -0.226260 0.859393
v 8.523365 0.477140 0.857001
v 8.621362 0.476574 0.816788
v 8.624671 -0.226880 0.816649
v 8.673422 -0.227139 0.796644
v 8.368011 -0.225800 0.795636
v 8.676278 0.476282 0.794252
v 8.370867 0.477591 0.793245
v 8.737176 -0.227861 0.644146
v 8.305260 -0.226057 0.642721
v 8.740032 0.475559 0.641755
v 8.308116 0.477345 0.640330
v 8.339644 0.476951 0.564915
v 8.337919 -0.226481 0.564603
v 8.674425 -0.228071 0.491232
v 8.369015 -0.226833 0.490224
v 8.677282 0.475348 0.488840
v 8.371871 0.476586 0.487833
v 8.521928 -0.227645 0.427475
v 8.524785 0.475773 0.425084
v 9.463300 -0.231696 0.352838
v 8.795262 -0.228987 0.350633
v 9.466156 0.471725 0.350445
v 8.091845 -0.226139 0.348313
v 8.798119 0.474430 0.348242
v 8.094701 0.477279 0.345920
vn -0.597766 -0.801660 0.000763
vn -0.590899 0.806696 -0.004822
vn -0.418104 0.807428 0.416181
vn -0.425123 -0.800958 0.421522
vn -0.415723 0.804498 -0.424146
vn -0.422071 -0.803827 -0.419172
vn -0.001282 -0.806085 -0.591784
vn 0.005219 0.802240 -0.596942
vn 0.001709 0.806238 0.591540
vn -0.005371 -0.802271 0.596912
vn 0.418287 -0.807215 -0.416395
vn 0.425001 0.801111 -0.421369
vn 0.422071 0.803797 0.419172
vn 0.415723 -0.804498 0.424146
vn 0.265450 -0.705985 0.656575
vn 0.270974 0.709525 0.650472
vn 0.591083 -0.806574 0.004334
vn 0.597613 0.801752 -0.000427
vn -0.649342 0.708975 -0.275094
vn -0.655354 -0.705222 -0.270425
vn -0.308145 -0.902615 -0.300485
vn -0.577776 -0.577013 -0.577227
vn 0.576861 -0.581683 -0.573443
vn -0.005188 -0.704794 0.709372
vn -0.581561 -0.573138 0.577288
vn -0.576983 -0.572893 -0.582080
vn 0.000519 0.709372 0.704825
vn 0.573046 -0.577746 0.581164
vn 0.577807 0.576922 0.577288
vn -0.292795 0.906369 -0.304483
vn -0.573870 0.581744 -0.576373
vn -0.573077 0.577685 -0.581195
vn -0.576891 0.581530 0.573565
vn 0.581561 0.573016 -0.577380
usemtl Material.086
s 1
f 52//33 50//34 46//35
f 52//33 46//35 48//36
f 56//37 58//38 60//39
f 56//37 60//39 59//40
f 48//36 46//35 41//41
f 48//36 41//41 42//42
f 59//40 60//39 57//43
f 59//40 57//43 55//44
f 45//45 47//46 43//47
f 45//45 43//47 42//42
f 45//45 42//42 41//41
f 45//45 41//41 44//48
f 55//44 57//43 51//49
f 55//44 51//49 49//50
f 54//51 50//34 52//33
f 54//51 52//33 53//52
f 54//51 53//52 58//38
f 54//51 58//38 56//37
f 49//50 51//49 47//46
f 49//50 47//46 45//45
f 38//53 35//54 36//55
f 38//53 65//56 63//57
f 38//53 63//57 37//58
f 62//59 65//56 66//60
f 62//59 66//60 64//61
f 40//62 38//53 37//58
f 40//62 37//58 39//63
f 33//64 35//54 38//53
f 33//64 38//53 40//62
f 62//59 40//62 39//63
f 62//59 39//63 61//65
f 41//41 33//64 40//62
f 33//64 41//41 46//35
f 33//64 46//35 64//61
f 64//61 46//35 50//34
f 64//61 50//34 54//51
f 44//48 41//41 40//62
f 43//47 47//46 38//53
f 38//53 47//46 51//49
f 38//53 51//49 65//56
f 65//56 51//49 57//43
f 65//56 57//43 60//39
f 66//60 65//56 60//39
f 66//60 60//39 58//38
f 66//60 58//38 53//52
f 33//64 34//66 36//55
f 33//64 36//55 35//54
f 38//53 36//55 48//36
f 38//53 48//36 42//42
f 38//53 42//42 43//47
f 66//60 53//52 52//33
f 66//60 52//33 48//36
f 66//60 48//36 36//55
f 63//57 61//65 39//63
f 63//57 39//63 37//58
f 34//66 33//64 64//61
f 66//60 36//55 34//66
f 66//60 34//66 64//61
f 54//51 56//37 64//61
f 64//61 56//37 59//40
f 64//61 59//40 62//59
f 62//59 59//40 55//44
f 62//59 55//44 49//50
f 40//62 62//59 49//50
f 40//62 49//50 45//45
f 40//62 45//45 44//48
f 65//56 62//59 61//65
f 65//56 61//65 63//57
