# Blender v2.65 (sub 0) OBJ File: 'ATR.blend'
# www.blender.org
mtllib L_WFE.mtl
o L_WFE.1_ShapeIndexedFaceS.083
v 9.929105 -0.719733 0.311390
v 7.650487 -0.719696 0.320688
v 8.527559 -0.719624 0.424151
v 8.680391 -0.719576 0.486726
v 8.375243 -0.719571 0.487971
v 8.744212 -0.719455 0.639042
v 8.312667 -0.719449 0.640803
v 8.681638 -0.719332 0.791875
v 8.376489 -0.719327 0.793120
v 8.529321 -0.719278 0.855696
v 9.931819 -0.719200 0.978084
v 7.653211 -0.719163 0.987382
v 9.698528 -0.436470 0.312104
v 7.881068 -0.436440 0.319520
v 8.527563 -0.436364 0.423925
v 8.680394 -0.436317 0.486500
v 8.375246 -0.436312 0.487745
v 8.744216 -0.436196 0.638816
v 8.312671 -0.436189 0.640577
v 8.681641 -0.436073 0.791649
v 8.376492 -0.436068 0.792894
v 8.529324 -0.436020 0.855469
v 9.701252 -0.435937 0.978798
v 7.883789 -0.435907 0.986215
v 9.930430 -0.211730 0.633797
v 9.699842 -0.211725 0.634737
v 7.882389 -0.211695 0.642153
v 7.651813 -0.211692 0.643094
v 9.929809 -0.148653 0.481171
v 9.699231 -0.148649 0.482113
v 7.881766 -0.148619 0.489529
v 7.651191 -0.148614 0.490470
v 9.931052 -0.148409 0.786320
v 9.700475 -0.148405 0.787261
v 7.883012 -0.148375 0.794677
v 7.652435 -0.148370 0.795618
v 9.929547 0.003872 0.417852
v 9.698970 0.003876 0.418792
v 7.881510 0.003906 0.426208
v 7.650929 0.003910 0.427149
v 9.931314 0.004218 0.849396
v 9.700727 0.004222 0.850338
v 7.883271 0.004252 0.857754
v 7.652697 0.004256 0.858693
v 9.929810 0.156499 0.480928
v 9.699232 0.156503 0.481868
v 7.881771 0.156533 0.489285
v 7.651192 0.156536 0.490226
v 9.931054 0.156743 0.786076
v 9.700476 0.156747 0.787017
v 7.883016 0.156777 0.794433
v 7.652436 0.156781 0.795375
v 9.930432 0.219819 0.633452
v 9.699854 0.219824 0.634393
v 7.882394 0.219854 0.641808
v 7.651814 0.219858 0.642749
v 9.698544 0.807173 0.311110
v 7.881085 0.807203 0.318526
v 8.527580 0.807278 0.422930
v 8.680413 0.807326 0.485505
v 8.375264 0.807332 0.486750
v 8.744233 0.807447 0.637821
v 8.312689 0.807455 0.639583
v 8.681657 0.807570 0.790653
v 8.376509 0.807575 0.791899
v 8.529341 0.807624 0.854474
v 9.701267 0.807706 0.977804
v 7.883805 0.807736 0.985220
v 9.929122 1.090433 0.309943
v 7.650504 1.090466 0.319241
v 8.527584 1.090541 0.422704
v 8.680416 1.090590 0.485279
v 8.375267 1.090592 0.486524
v 8.744236 1.090709 0.637595
v 8.312692 1.090711 0.639356
v 8.681661 1.090829 0.790427
v 8.376513 1.090831 0.791672
v 8.529346 1.090880 0.854248
v 9.931847 1.090961 0.976637
v 7.653229 1.090994 0.985934
vn -0.594348 0.804193 0.001770
vn -0.594378 -0.804163 0.003021
vn -0.421979 -0.804498 -0.417920
vn -0.421979 0.803827 -0.419202
vn -0.594378 -0.804163 0.003052
vn 0.594378 0.804163 -0.003052
vn 0.594348 -0.804193 -0.001770
vn 0.421979 -0.803827 0.419202
vn 0.422010 0.804498 0.417890
vn 0.002411 0.804651 0.593707
vn 0.002411 -0.803705 0.594989
vn -0.418561 -0.803827 0.422620
vn -0.418531 0.804529 0.421339
vn -0.002411 -0.804651 -0.593707
vn -0.002411 0.803705 -0.594989
vn 0.422010 0.804498 0.417920
vn 0.421979 -0.803858 0.419172
vn 0.418531 -0.804529 -0.421339
vn 0.418561 0.803827 -0.422620
vn 0.418531 -0.804498 -0.421339
vn 0.297800 -0.302225 -0.905515
vn 0.802423 -0.420606 -0.423231
vn 0.804285 -0.594195 -0.002655
vn 0.805872 -0.419965 0.417341
vn 0.806604 0.000458 0.591052
vn 0.297800 0.300760 -0.905972
vn -0.806604 -0.000458 -0.591083
vn 0.801752 -0.000458 -0.597644
vn 0.802454 0.419935 -0.423902
vn -0.805872 0.419965 -0.417310
vn 0.305185 -0.300790 0.903531
vn 0.305185 0.302225 0.903043
vn 0.805872 0.420576 0.416669
vn -0.802423 0.420606 0.423231
vn -0.804163 0.594378 0.002777
vn 0.804163 0.594348 -0.003754
vn 0.579699 0.577776 0.574511
vn -0.297800 -0.300760 0.905972
vn 0.579669 -0.576891 0.575427
vn -0.297800 0.302225 0.905515
vn -0.574969 -0.576861 0.580157
vn -0.806574 -0.000458 -0.591083
vn -0.305185 -0.302225 -0.903043
vn -0.805872 -0.420606 -0.416639
vn -0.579699 -0.577776 -0.574511
vn 0.574969 -0.577807 -0.579241
vn 0.805902 0.420606 0.416639
vn -0.802454 0.420637 0.423200
vn -0.579669 0.576891 -0.575457
vn -0.574969 0.577807 0.579211
vn 0.574969 0.576861 -0.580157
vn -0.805902 -0.420606 -0.416608
vn -0.804193 -0.594348 0.003754
vn -0.802454 -0.419935 0.423872
vn 0.805872 -0.419965 0.417310
vn 0.804163 -0.594378 -0.002777
vn -0.802454 -0.419904 0.423902
vn -0.801752 0.000488 0.597613
vn -0.305185 0.300790 -0.903531
vn -0.801752 0.000458 0.597644
vn 0.806574 0.000458 0.591083
g L_WFE.1_ShapeIndexedFaceS.083_Material.085
usemtl Material.085
s 1
f 63//1 75//2 73//3
f 63//1 73//3 61//4
f 7//1 19//5 17//3
f 7//1 17//3 5//4
f 6//6 18//7 20//8
f 6//6 20//8 8//9
f 66//10 78//11 77//12
f 66//10 77//12 65//13
f 10//10 22//11 21//12
f 10//10 21//12 9//13
f 61//4 73//3 71//14
f 61//4 71//14 59//15
f 5//4 17//3 15//14
f 5//4 15//14 3//15
f 64//16 76//17 78//11
f 64//16 78//11 66//10
f 8//9 20//8 22//11
f 8//9 22//11 10//10
f 59//15 71//14 72//18
f 59//15 72//18 60//19
f 3//15 15//14 16//20
f 3//15 16//20 4//19
f 62//6 74//7 76//17
f 62//6 76//17 64//16
f 65//13 77//12 75//2
f 65//13 75//2 63//1
f 9//13 21//12 19//5
f 9//13 19//5 7//1
f 60//19 72//18 74//7
f 60//19 74//7 62//6
f 4//19 16//20 18//7
f 4//19 18//7 6//6
f 23//21 30//22 26//23
f 23//21 26//23 34//24
f 23//21 34//24 42//25
f 23//21 42//25 67//26
f 39//27 40//28 48//29
f 39//27 48//29 47//30
f 38//28 30//22 13//31
f 38//28 13//31 57//32
f 38//28 57//32 46//29
f 13//31 30//22 23//21
f 50//33 49//34 53//35
f 50//33 53//35 54//36
f 2//37 14//38 70//39
f 70//39 14//38 58//40
f 70//39 58//40 69//41
f 69//41 58//40 57//32
f 46//29 45//30 37//42
f 46//29 37//42 38//28
f 24//43 14//38 17//3
f 24//43 17//3 19//5
f 24//43 19//5 21//12
f 24//43 21//12 22//11
f 18//7 16//20 13//31
f 13//31 16//20 15//14
f 13//31 15//14 14//38
f 14//38 15//14 17//3
f 23//21 24//43 22//11
f 23//21 22//11 20//8
f 23//21 20//8 18//7
f 23//21 18//7 13//31
f 31//44 32//22 40//28
f 31//44 40//28 39//27
f 79//45 80//46 78//11
f 79//45 78//11 76//17
f 79//45 76//17 74//7
f 79//45 74//7 69//41
f 73//3 70//39 71//14
f 71//14 70//39 69//41
f 71//14 69//41 72//18
f 72//18 69//41 74//7
f 80//46 70//39 73//3
f 80//46 73//3 75//2
f 80//46 75//2 77//12
f 80//46 77//12 78//11
f 55//35 56//36 52//47
f 55//35 52//47 51//48
f 11//49 1//50 3//15
f 11//49 3//15 4//19
f 11//49 4//19 6//6
f 3//15 1//50 2//37
f 3//15 2//37 5//4
f 5//4 2//37 12//51
f 5//4 12//51 7//1
f 7//1 12//51 9//13
f 6//6 8//9 11//49
f 11//49 8//9 10//10
f 11//49 10//10 12//51
f 12//51 10//10 9//13
f 30//22 29//52 25//53
f 30//22 25//53 26//23
f 69//41 1//50 37//42
f 69//41 37//42 45//30
f 69//41 45//30 53//35
f 69//41 53//35 79//45
f 35//54 36//55 28//56
f 35//54 28//56 27//53
f 33//57 11//49 41//58
f 41//58 11//49 79//45
f 41//58 79//45 49//34
f 49//34 79//45 53//35
f 38//28 37//42 29//52
f 38//28 29//52 30//22
f 33//57 25//53 11//49
f 11//49 25//53 29//52
f 29//52 1//50 11//49
f 1//50 29//52 37//42
f 26//23 25//53 33//57
f 26//23 33//57 34//24
f 58//40 59//15 57//32
f 57//32 59//15 60//19
f 57//32 60//19 67//26
f 67//26 60//19 62//6
f 59//15 58//40 61//4
f 61//4 58//40 68//59
f 61//4 68//59 63//1
f 63//1 68//59 65//13
f 62//6 64//16 67//26
f 67//26 64//16 66//10
f 67//26 66//10 68//59
f 68//59 66//10 65//13
f 43//60 44//61 36//55
f 43//60 36//55 35//54
f 24//43 23//21 11//49
f 24//43 11//49 12//51
f 24//43 12//51 80//46
f 24//43 80//46 68//59
f 47//30 48//29 56//36
f 47//30 56//36 55//35
f 80//46 12//51 44//61
f 80//46 44//61 52//47
f 80//46 52//47 56//36
f 80//46 56//36 48//29
f 51//48 52//47 44//61
f 51//48 44//61 43//60
f 32//22 2//37 40//28
f 40//28 2//37 70//39
f 40//28 70//39 48//29
f 48//29 70//39 80//46
f 54//36 53//35 45//30
f 54//36 45//30 46//29
f 12//51 2//37 32//22
f 12//51 32//22 28//56
f 12//51 28//56 36//55
f 12//51 36//55 44//61
f 27//53 28//56 32//22
f 27//53 32//22 31//44
f 79//45 11//49 23//21
f 79//45 23//21 67//26
f 79//45 67//26 68//59
f 79//45 68//59 80//46
f 1//50 69//41 57//32
f 1//50 57//32 13//31
f 1//50 13//31 14//38
f 1//50 14//38 2//37
f 24//43 43//60 35//54
f 24//43 35//54 27//53
f 24//43 27//53 31//44
f 24//43 31//44 14//38
f 42//25 41//58 49//34
f 42//25 49//34 50//33
f 68//59 47//30 55//35
f 68//59 55//35 51//48
f 68//59 51//48 43//60
f 68//59 43//60 24//43
f 46//29 57//32 54//36
f 54//36 57//32 67//26
f 54//36 67//26 50//33
f 50//33 67//26 42//25
f 58//40 14//38 39//27
f 58//40 39//27 47//30
f 58//40 47//30 68//59
f 39//27 14//38 31//44
f 34//24 33//57 41//58
f 34//24 41//58 42//25
