# Blender v2.65 (sub 0) OBJ File: 'ATR.blend'
# www.blender.org
mtllib L_WR.mtl
o L_WR.1_ShapeIndexedFaceS.082
v 7.988019 -0.701407 -5.384216
v 9.497702 -0.701174 -5.400744
v 8.072612 -0.670337 -3.814267
v 9.447501 -0.670126 -3.829323
v 8.312881 -0.506271 -2.051495
v 9.245843 -0.506128 -2.061713
v 7.443514 -0.465316 0.850588
v 7.032919 -0.424013 0.852567
v 7.438981 -0.372433 -2.029230
v 7.028386 -0.331130 -2.027261
v 8.702745 -0.323965 -5.385105
v 7.456353 -0.317117 -3.807297
v 8.686960 -0.293591 -7.037678
v 7.047720 -0.275768 -3.812912
v 8.496873 -0.238739 -5.381284
v 8.908627 -0.238675 -5.385796
v 8.892828 -0.208359 -7.035219
v 8.481101 -0.208307 -7.036997
v 8.411605 -0.032921 -5.376573
v 8.993913 -0.032831 -5.382946
v 8.978108 -0.002539 -7.031059
v 8.686975 -0.002503 -7.032328
v 8.395840 -0.002465 -7.033586
v 8.496892 0.172923 -5.373723
v 8.908646 0.172986 -5.378224
v 8.892847 0.203302 -7.027647
v 8.481120 0.203355 -7.029436
v 8.702773 0.258213 -5.374403
v 8.686988 0.288586 -7.026977
v 7.521484 0.308627 0.875426
v 8.312920 0.323019 -2.036253
v 9.245882 0.323163 -2.046471
v 7.111400 0.354918 0.877563
v 7.516951 0.401510 -2.004392
v 7.106866 0.447801 -2.002254
v 9.432855 0.549122 -3.792747
v 8.312736 0.604405 -1.999102
v 7.988081 0.640520 -5.359553
v 9.497765 0.640753 -5.376081
v 7.545173 0.681617 -1.995404
v 8.064972 0.686093 -3.766576
v 7.134588 0.722919 -1.993425
v 7.562545 0.736932 -3.773472
v 7.153913 0.778281 -3.779087
v 9.280801 0.907090 -2.004168
v 9.472713 0.944750 -3.780046
v 8.352594 1.000039 -1.986410
v 8.104830 1.081725 -3.753874
v 7.174438 1.118546 -1.980733
v 7.193773 1.173911 -3.766386
vn -0.548235 0.536485 0.641530
vn -0.774865 -0.011567 0.632008
vn -0.004334 -0.018372 0.999817
vn -0.548296 -0.559679 0.621357
vn -0.000122 -0.787835 0.615864
vn -0.000061 0.764672 0.644398
vn 0.549608 -0.561266 0.618732
vn 0.777856 -0.011567 0.628315
vn 0.549669 0.538102 0.638936
vn 0.602649 -0.014618 0.797845
vn 0.428846 -0.434553 0.791955
vn -0.586047 -0.014863 0.810114
vn -0.411573 0.405744 0.816034
vn 0.008972 -0.609027 0.793054
vn -0.411603 -0.435408 0.800592
vn 0.009033 0.579485 0.814905
vn 0.428907 0.405103 0.807398
vn -0.584307 0.575182 0.572436
vn -0.706748 0.701865 -0.088717
vn -0.926725 -0.301279 0.224464
vn -0.592730 -0.580676 0.558031
vn 0.593493 0.577319 0.560747
vn 0.701071 0.705588 -0.102939
vn 0.589679 -0.587420 0.554216
vn 0.737449 0.009857 0.675283
vn -0.550218 0.556475 -0.622547
vn 0.532914 0.559862 -0.634449
vn 0.656941 0.039674 -0.752861
vn -0.670553 0.055330 -0.739769
vn -0.591632 -0.501572 -0.631123
vn -0.085269 -0.670217 -0.737205
vn -0.071566 -0.729392 0.680319
vn -0.656056 -0.533311 0.533952
vn 0.508744 -0.649617 0.564898
vn 0.519639 -0.613147 -0.594928
vn 0.706778 -0.048555 -0.705710
vn 0.693686 -0.092807 0.714225
vn -0.113102 0.416883 -0.901883
vn -0.284646 0.300821 0.910184
vn -0.270730 0.356212 -0.894284
vn -0.631275 0.775231 0.021973
vn -0.523972 0.614795 0.589404
vn 0.624378 0.498032 0.601733
vn 0.775628 0.630726 0.023530
vn 0.869869 -0.382305 -0.311624
vn -0.929929 -0.198126 -0.309702
vn 0.512101 -0.616810 -0.597705
vn -0.635945 -0.493576 -0.593188
vn -0.517502 0.650533 -0.555834
vn 0.631367 0.534959 -0.561388
g L_WR.1_ShapeIndexedFaceS.082_Material.084
usemtl Material.084
s 1
f 17//1 21//2 22//3
f 26//4 29//5 22//3
f 13//6 17//1 22//3
f 27//7 23//8 22//3
f 18//9 13//6 22//3
f 29//5 27//7 22//3
f 21//2 26//4 22//3
f 23//8 18//9 22//3
f 19//10 23//8 27//7
f 19//10 27//7 24//11
f 20//12 21//2 17//1
f 20//12 17//1 16//13
f 28//14 29//5 26//4
f 28//14 26//4 25//15
f 16//13 17//1 13//6
f 16//13 13//6 11//16
f 24//11 27//7 29//5
f 24//11 29//5 28//14
f 11//16 13//6 18//9
f 11//16 18//9 15//17
f 25//15 26//4 21//2
f 25//15 21//2 20//12
f 15//17 18//9 23//8
f 15//17 23//8 19//10
f 2//18 4//19 36//20
f 2//18 36//20 39//21
f 1//22 3//23 4//19
f 1//22 4//19 2//18
f 39//21 28//14 25//15
f 39//21 25//15 20//12
f 39//21 20//12 16//13
f 39//21 16//13 2//18
f 38//24 15//17 19//10
f 38//24 19//10 24//11
f 38//24 24//11 28//14
f 38//24 28//14 39//21
f 16//13 11//16 2//18
f 2//18 11//16 15//17
f 15//17 1//22 2//18
f 1//22 15//17 38//24
f 1//22 38//24 41//25
f 1//22 41//25 3//23
f 36//20 41//25 38//24
f 36//20 38//24 39//21
f 6//26 5//27 31//28
f 6//26 31//28 32//29
f 45//30 47//31 48//32
f 45//30 48//32 46//33
f 31//28 5//27 3//23
f 31//28 3//23 41//25
f 5//27 6//26 4//19
f 5//27 4//19 3//23
f 6//26 32//29 36//20
f 6//26 36//20 4//19
f 46//33 48//32 41//25
f 46//33 41//25 36//20
f 50//34 49//35 42//36
f 50//34 42//36 44//37
f 47//31 45//30 32//29
f 47//31 32//29 31//28
f 45//30 46//33 36//20
f 45//30 36//20 32//29
f 41//25 37//38 31//28
f 37//38 47//31 31//28
f 43//39 40//40 37//38
f 43//39 37//38 41//25
f 40//40 42//36 49//35
f 40//40 49//35 47//31
f 40//40 47//31 37//38
f 49//35 50//34 48//32
f 49//35 48//32 47//31
f 50//34 44//37 43//39
f 50//34 43//39 41//25
f 50//34 41//25 48//32
f 9//41 12//42 14//43
f 9//41 14//43 10//44
f 35//45 10//44 14//43
f 35//45 14//43 44//37
f 35//45 44//37 42//36
f 14//43 12//42 43//39
f 14//43 43//39 44//37
f 12//42 9//41 34//46
f 12//42 34//46 40//40
f 12//42 40//40 43//39
f 34//46 35//45 42//36
f 34//46 42//36 40//40
f 33//47 30//48 7//49
f 33//47 7//49 8//50
f 8//50 7//49 9//41
f 8//50 9//41 10//44
f 7//49 30//48 34//46
f 7//49 34//46 9//41
f 30//48 33//47 35//45
f 30//48 35//45 34//46
f 33//47 8//50 10//44
f 33//47 10//44 35//45
