#
# Wavefront OBJ file: C:\Users\crawfoa\Desktop\usc objs\R_AAA_new.obj
#
# Converted by the PolyTrans geometry converter from Okino Computer Graphics, Inc.
# Date/time of export: 04/16/2013 17:02:30
#
# Bounding box of geometry = (1.71049,-7.25292,29.7951) to (5.21745,2.43833,32.9744).

mtllib R_AAA_new.mtl

# Coordinates for object 'R_AAA'
v  5.217453 2.438330 32.960770 
v  1.717453 2.438330 32.960770 
v  5.217453 2.438330 31.835770 
v  1.717453 2.438330 31.835770 
v  5.217453 -3.751670 32.960770 
v  1.717453 -3.751670 32.960770 
v  5.217453 -3.751670 31.835770 
v  1.717453 -3.751670 31.835770 
v  5.217453 1.837900 31.835770 
v  1.717453 1.837900 31.835770 
v  5.217453 -3.250899 31.835770 
v  1.717453 -3.250980 31.835770 
v  3.667653 2.438330 29.795094 
v  3.667506 1.837900 31.835770 
v  3.668353 -3.250935 29.795094 
v  3.668353 -3.751670 31.835770 
v  2.467503 -3.751670 31.835770 
v  2.467503 -3.250963 31.835770 
v  2.467503 1.837900 31.835770 
v  2.467503 2.438330 31.835770 
v  3.668353 -3.250935 31.835770 
v  3.668353 -3.751670 29.795094 
v  2.467503 -3.751670 29.795094 
v  2.467503 -3.250963 29.795094 
v  3.667653 2.438330 31.835770 
v  3.667506 1.837900 29.795094 
v  2.467503 1.837900 29.795094 
v  2.467503 2.438330 29.795094 
v  1.717453 1.837900 32.960770 
v  1.717453 -3.250899 32.960770 
v  5.217453 -3.250899 32.960770 
v  5.217453 1.837900 32.960770 
v  2.467503 2.438330 32.960770 
v  3.667653 2.438330 32.960770 
v  2.467503 -3.751670 32.960770 
v  3.668353 -3.751670 32.960770 
v  4.906821 -4.328625 31.312906 
v  4.342321 -4.232931 31.312901 
v  3.475022 -4.232927 31.312887 
v  2.607722 -4.232922 31.312874 
v  2.091040 -4.310669 31.312868 
v  5.209617 -4.791251 30.862339 
v  4.342317 -4.791246 30.854719 
v  3.475017 -4.791241 30.854706 
v  2.607717 -4.791237 30.854692 
v  1.740417 -4.791232 30.862288 
v  5.209609 -5.697546 31.105509 
v  4.342309 -5.697542 31.097883 
v  3.475009 -5.697537 31.097872 
v  2.607709 -5.697532 31.097860 
v  1.710523 -5.697527 31.105455 
v  5.064179 -6.429860 31.304014 
v  4.233728 -6.429856 31.296392 
v  3.475002 -6.429851 31.296381 
v  2.716276 -6.429848 31.296370 
v  1.891803 -6.429843 31.303968 
v  4.563709 -7.022967 31.488659 
v  2.398240 -7.022959 31.488638 
v  3.854976 -7.252924 31.615847 
v  3.474996 -7.252922 31.615841 
v  3.095015 -7.252920 31.615835 
v  3.854958 -7.247782 32.400414 
v  3.474977 -7.247780 32.400410 
v  3.094996 -7.247778 32.400406 
v  4.563690 -7.004837 32.475212 
v  2.398221 -7.004829 32.475189 
v  5.064155 -6.436920 32.632858 
v  4.233704 -6.436916 32.632847 
v  3.474978 -6.436912 32.632835 
v  2.716252 -6.436908 32.632824 
v  1.891779 -6.436904 32.632813 
v  5.209581 -5.705925 32.780128 
v  4.342281 -5.705921 32.780121 
v  3.474981 -5.705916 32.780102 
v  2.607681 -5.705911 32.780090 
v  1.710495 -5.705907 32.780079 
v  5.209586 -4.799243 32.924465 
v  4.342286 -4.799239 32.924454 
v  3.474986 -4.799234 32.924438 
v  2.607686 -4.799229 32.924427 
v  1.740386 -4.799225 32.924412 
v  4.906789 -4.340121 32.974373 
v  4.342289 -4.244427 32.974369 
v  3.474989 -4.244423 32.974354 
v  2.607689 -4.244418 32.974342 
v  2.091007 -4.322165 32.974335 
# 86 vertices

# 0 texture vertices

vn  -1.0 0.0 0.0 
vn  -0.998274 -0.058722 -0.000322 
vn  -0.988587 -0.150649 -0.000796 
vn  -0.973569 0.228392 0.000883 
vn  -0.907287 0.420506 0.002235 
vn  -0.887318 -0.461155 0.001496 
vn  -0.884594 -0.466355 -0.002494 
vn  -0.631223 0.775587 0.004711 
vn  -0.631175 -0.775590 0.008827 
vn  -0.483628 -0.875189 0.012208 
vn  -0.279322 0.897301 -0.341804 
vn  -0.216554 -0.976218 0.010161 
vn  -0.106014 -0.994343 0.006514 
vn  -0.099442 0.995020 0.006883 
vn  -0.045090 0.904315 -0.424477 
vn  -0.025206 -0.320931 -0.946767 
vn  -0.020717 0.221672 -0.974901 
vn  -0.019706 -0.353864 -0.935089 
vn  -0.008634 0.063214 -0.997963 
vn  -0.008616 -0.276872 -0.960868 
vn  -0.008173 -0.261196 -0.965251 
vn  -0.007606 -0.089603 0.995948 
vn  -0.007604 -0.098841 0.995074 
vn  -0.006922 -0.298568 -0.954363 
vn  -0.005613 -0.260860 -0.965360 
vn  -0.004175 -0.269703 0.962935 
vn  -0.002788 -0.274342 0.961628 
vn  -0.002185 -0.121279 0.992616 
vn  -0.001404 -0.234745 0.972056 
vn  -0.000023 1.0 0.0 
vn  -0.000017 -0.089605 0.995977 
vn  -0.000017 -0.139538 0.990217 
vn  -0.000016 -0.180269 0.983617 
vn  -0.000016 -0.177392 0.984140 
vn  -0.000016 -0.123479 0.992347 
vn  -0.000016 -0.249705 0.968322 
vn  -0.000015 -0.177391 0.984140 
vn  -0.000015 -0.220941 0.975287 
vn  -0.000015 -0.275539 0.961290 
vn  -0.000014 -0.170672 0.985328 
vn  -0.000014 -0.220947 0.975286 
vn  -0.000014 -0.177390 0.984141 
vn  -0.000014 -0.132682 0.991159 
vn  -0.000005 -0.999979 0.006553 
vn  0.0 -1.0 0.0 
vn  0.0 0.0 -1.0 
vn  0.0 0.0 1.0 
vn  0.0 1.0 0.0 
vn  0.000005 0.999976 0.006919 
vn  0.000011 0.905460 -0.424432 
vn  0.000012 -0.260564 -0.965457 
vn  0.000013 -0.361833 -0.932243 
vn  0.000013 -0.328838 -0.944386 
vn  0.000016 0.210941 -0.977499 
vn  0.001404 -0.234728 0.972060 
vn  0.002233 -0.125882 0.992043 
vn  0.002819 -0.274315 0.961636 
vn  0.004239 -0.269654 0.962948 
vn  0.004310 -0.260848 -0.965370 
vn  0.004480 -0.089603 0.995968 
vn  0.006724 -0.096835 0.995278 
vn  0.007123 -0.298510 -0.954380 
vn  0.008484 -0.260484 -0.965441 
vn  0.008500 0.253693 -0.967247 
vn  0.008692 -0.276715 -0.960913 
vn  0.020126 -0.353702 -0.935142 
vn  0.021000 0.293784 -0.955641 
vn  0.025791 -0.320754 -0.946811 
vn  0.055888 0.998413 0.006909 
vn  0.097543 0.936700 -0.336272 
vn  0.156750 -0.987617 0.006476 
vn  0.160118 -0.987054 0.009306 
vn  0.328367 0.839899 -0.432140 
vn  0.482220 -0.875965 0.012230 
vn  0.547630 0.836703 0.005342 
vn  0.632942 -0.774149 0.008853 
vn  0.896539 -0.442959 -0.002337 
vn  0.899125 -0.437689 0.001642 
vn  0.925324 0.379172 0.002059 
vn  0.981670 0.190586 0.000754 
vn  0.991442 -0.130546 -0.000656 
vn  0.997866 -0.065295 -0.000311 
vn  1.0 -0.000244 0.0 
vn  1.0 0.0 0.0 
# 84 normals

usemtl material

o R_AAA
g R_AAA

s off
f 1//48 25//48 34//48
f 1//47 34//47 32//47
f 1//84 9//84 3//84
f 2//1 10//1 29//1
f 3//46 14//46 25//46
f 5//45 16//45 7//45
f 7//46 21//46 11//46
f 10//46 18//46 12//46
f 10//46 20//46 19//46
f 9//46 21//46 14//46
f 8//46 18//46 17//46
f 15//46 23//46 24//46
f 14//46 18//46 19//46
f 13//46 27//46 28//46
f 21//84 22//84 15//84
f 16//45 23//45 22//45
f 17//1 24//1 23//1
f 18//30 15//30 24//30
f 25//83 26//83 13//83
f 14//45 27//45 26//45
f 19//1 28//1 27//1
f 20//48 13//48 28//48
f 12//1 29//1 10//1
f 8//1 30//1 12//1
f 5//84 11//84 31//84
f 31//84 9//84 32//84
f 4//48 33//48 20//48
f 20//48 34//48 25//48
f 6//45 17//45 35//45
f 35//45 16//45 36//45
f 30//47 32//47 29//47
f 6//47 35//47 30//47
f 3//48 25//48 1//48
f 2//47 29//47 33//47
f 29//47 32//47 33//47
f 33//47 32//47 34//47
f 32//84 9//84 1//84
f 4//1 10//1 2//1
f 9//46 14//46 3//46
f 36//45 16//45 5//45
f 16//46 21//46 7//46
f 19//46 18//46 10//46
f 4//46 20//46 10//46
f 11//46 21//46 9//46
f 12//46 18//46 8//46
f 22//46 23//46 15//46
f 21//46 18//46 14//46
f 26//46 27//46 13//46
f 16//84 22//84 21//84
f 17//45 23//45 16//45
f 18//1 24//1 17//1
f 21//30 15//30 18//30
f 14//83 26//83 25//83
f 19//45 27//45 14//45
f 20//1 28//1 19//1
f 25//48 13//48 20//48
f 30//1 29//1 12//1
f 6//1 30//1 8//1
f 7//84 11//84 5//84
f 11//84 9//84 31//84
f 2//48 33//48 4//48
f 33//48 34//48 20//48
f 8//45 17//45 6//45
f 17//45 16//45 35//45
f 31//47 32//47 30//47
f 5//47 31//47 36//47
f 31//47 30//47 36//47
f 36//47 30//47 35//47
f 82//75 37//73 38//70
f 83//69 82//75 38//70
f 83//69 38//70 39//50
f 84//49 83//69 39//50
f 84//49 39//50 40//15
f 85//14 84//49 40//15
f 85//14 40//15 41//11
f 86//8 85//14 41//11
f 43//67 37//73 42//64
f 43//67 38//70 37//73
f 39//50 38//70 43//67
f 44//54 39//50 43//67
f 40//15 39//50 44//54
f 45//17 40//15 44//54
f 41//11 40//15 45//17
f 46//19 41//11 45//17
f 42//79 37//73 82//75
f 77//80 42//79 82//75
f 78//28 82//23 83//22
f 78//28 77//43 82//23
f 78//28 83//22 84//31
f 79//35 78//28 84//31
f 79//35 84//31 85//60
f 80//56 79//35 85//60
f 86//8 41//11 46//5
f 81//4 86//8 46//5
f 80//56 85//60 86//61
f 81//32 80//56 86//61
f 43//67 42//64 47//63
f 48//59 43//67 47//63
f 44//54 43//67 48//59
f 49//51 44//54 48//59
f 45//17 44//54 49//51
f 50//25 45//17 49//51
f 46//19 45//17 50//25
f 51//21 46//19 50//25
f 47//82 42//79 77//80
f 72//81 47//82 77//80
f 72//40 77//43 78//28
f 73//34 72//40 78//28
f 73//34 78//28 79//35
f 74//33 73//34 79//35
f 74//33 79//35 80//56
f 75//37 74//33 80//56
f 81//4 46//5 51//2
f 76//3 81//4 51//2
f 75//37 80//56 81//32
f 76//42 75//37 81//32
f 48//59 47//63 52//65
f 53//24 48//59 52//65
f 49//51 48//59 53//24
f 54//53 49//51 53//24
f 55//62 49//51 54//53
f 55//62 50//25 49//51
f 56//20 50//25 55//62
f 56//20 51//21 50//25
f 52//78 47//82 72//81
f 67//77 52//78 72//81
f 67//41 72//40 73//34
f 68//29 67//41 73//34
f 68//29 73//34 74//33
f 69//36 68//29 74//33
f 70//55 74//33 75//37
f 70//55 69//36 74//33
f 76//3 51//2 56//6
f 71//7 76//3 56//6
f 71//38 75//37 76//42
f 71//38 70//55 75//37
f 53//24 52//65 57//16
f 59//18 53//24 57//16
f 54//53 53//24 59//18
f 60//52 54//53 59//18
f 61//66 54//53 60//52
f 61//66 55//62 54//53
f 58//68 55//62 61//66
f 58//68 56//20 55//62
f 65//76 52//78 67//77
f 65//76 57//74 52//78
f 65//26 67//41 68//29
f 62//27 65//26 68//29
f 62//72 57//74 65//76
f 62//72 59//71 57//74
f 62//27 68//29 69//36
f 63//39 62//27 69//36
f 60//44 59//71 62//72
f 63//44 60//44 62//72
f 64//57 69//36 70//55
f 64//57 63//39 69//36
f 61//13 60//44 63//44
f 64//12 61//13 63//44
f 66//9 56//6 58//10
f 66//9 71//7 56//6
f 66//58 70//55 71//38
f 66//58 64//57 70//55
f 58//10 61//13 64//12
f 66//9 58//10 64//12
# 164 polygons
