# Blender3D v249 OBJ File: ATR.blend
# www.blender3d.org
mtllib R_HFR.mtl
v 4.691712 -2.827132 11.992764
v 2.286553 -2.827129 11.992761
v 4.691713 -2.705526 11.581594
v 2.286553 -2.705524 11.581592
v 3.526218 -2.374111 11.679527
v 3.487170 -2.356160 11.684887
v 3.822017 -2.236813 11.720150
v 3.866250 -2.216457 11.726172
v 3.186187 -2.216456 11.726171
v 3.526222 -1.645304 9.748654
v 3.170148 -2.173449 11.738953
v 3.526226 -0.981757 7.524072
v 3.866253 -1.510336 9.788916
v 3.186190 -1.510335 9.788915
v 3.866257 -0.846789 7.564334
v 3.186194 -0.846788 7.564333
v 3.526226 -0.751352 7.592802
v 3.986221 -1.891934 11.822208
v 3.696242 -0.683866 7.612928
v 3.356210 -0.683865 7.612927
v 4.007096 -1.835873 11.838690
v 3.045342 -1.835872 11.838689
v 3.062912 -1.788728 11.852713
v 4.007099 -1.184489 9.886105
v 3.045345 -1.184489 9.886104
v 4.007103 -0.520946 7.661533
v 3.766664 -0.520945 7.661532
v 3.526226 -0.520945 7.661532
v 3.285787 -0.520945 7.661532
v 3.045349 -0.520944 7.661531
v 3.696242 -0.358022 7.710126
v 3.356210 -0.358022 7.710126
v 3.888228 -1.514388 11.933784
v 3.866250 -1.455370 11.951287
v 3.186187 -1.455369 11.951286
v 3.526226 -0.290536 7.730252
v 3.233617 -1.433506 11.957725
v 3.866253 -0.858644 9.983294
v 3.186191 -0.858644 9.983294
v 3.866257 -0.195098 7.758721
v 3.186194 -0.195098 7.758720
v 3.577792 -1.321533 11.990851
v 3.526219 -1.297771 11.997918
v 3.526223 -0.723675 10.023555
v 3.526226 -0.060130 7.798982
v 4.691715 0.232650 12.897682
v 2.286555 0.232652 12.897678
v 4.691715 0.354273 12.486414
v 2.286556 0.354275 12.486410
vn 0.000000 -0.285836 0.958251
vn 0.000000 -0.285806 0.958281
vn 0.000000 -0.285806 0.958251
vn 0.887753 -0.412152 0.204962
vn 0.716483 -0.667714 -0.201880
vn 0.272835 -0.577288 0.769555
vn -0.663869 -0.438856 0.605487
vn -0.999969 -0.000153 0.001923
vn -0.430586 -0.312693 0.846644
vn 0.772423 0.117252 0.624165
vn 0.999969 -0.000916 0.001679
vn 0.334635 -0.223884 0.915342
vn -0.337230 0.537461 0.772912
vn -0.000427 0.948027 0.318125
vn -0.000702 0.231056 0.972930
vn -0.346965 -0.882382 0.317728
vn -0.716544 -0.668233 -0.199896
vn -0.506272 -0.644032 0.573473
vn 0.336924 0.535874 0.774132
vn 0.757591 0.617969 0.210059
vn 0.495193 0.213843 0.842006
vn 0.347575 -0.882717 0.316111
vn 0.000397 -0.959014 -0.283303
vn 0.000763 -0.736015 0.676931
vn -0.880093 0.224952 0.418043
vn -0.757561 0.618793 0.207739
vn -0.262886 0.056093 0.963164
vn 0.312510 -0.116276 0.942747
vn -0.301584 0.032624 0.952879
vn -0.182287 -0.609149 0.771783
vn 0.192450 -0.457381 0.868160
vn 0.333323 0.828364 -0.450209
vn -0.577349 0.717368 -0.389874
vn 0.666646 -0.544755 -0.508682
vn -0.666646 -0.130558 -0.733818
vn 0.678579 -0.209937 0.703848
vn 0.491165 0.455245 0.742607
vn 0.479812 -0.669759 0.566698
vn -0.678579 -0.209937 0.703848
vn -0.411786 0.311991 0.856197
vn 0.000000 -0.924131 0.382031
vn 0.000000 0.259163 0.965819
vn -0.370830 -0.598712 0.709922
usemtl Material.109
s 1
f 27//1 31//2 28//1
f 17//1 19//1 28//1
f 20//1 17//1 28//1
f 31//2 36//3 28//1
f 29//1 20//1 28//1
f 36//3 32//2 28//1
f 19//1 27//1 28//1
f 32//2 29//1 28//1
f 23//4 39//5 35//6
f 33//7 24//8 21//9
f 11//10 25//11 22//12
f 7//13 10//14 5//15
f 42//16 38//17 34//18
f 6//19 14//20 9//21
f 37//22 44//23 43//24
f 18//25 13//26 8//27
f 4//28 3//29 5//15
f 4//28 5//15 6//19
f 4//28 6//19 9//21
f 5//15 3//29 7//13
f 8//27 7//13 3//29
f 8//27 3//29 21//9
f 8//27 21//9 18//25
f 21//9 3//29 33//7
f 48//30 43//24 42//16
f 48//30 42//16 34//18
f 48//30 34//18 33//7
f 48//30 33//7 3//29
f 49//31 22//12 35//6
f 49//31 35//6 37//22
f 49//31 37//22 43//24
f 49//31 43//24 48//30
f 22//12 23//4 35//6
f 4//28 9//21 11//10
f 4//28 11//10 22//12
f 4//28 22//12 49//31
f 2//32 1//33 3//29
f 2//32 3//29 4//28
f 4//28 49//31 47//34
f 4//28 47//34 2//32
f 46//35 1//33 2//32
f 46//35 2//32 47//34
f 47//34 49//31 48//30
f 47//34 48//30 46//35
f 3//29 1//33 46//35
f 3//29 46//35 48//30
f 22//12 25//11 23//4
f 25//11 39//5 23//4
f 21//9 24//8 18//25
f 24//8 13//26 18//25
f 35//6 39//5 37//22
f 39//5 44//23 37//22
f 5//15 10//14 6//19
f 10//14 14//20 6//19
f 43//24 44//23 42//16
f 44//23 38//17 42//16
f 8//27 13//26 7//13
f 13//26 10//14 7//13
f 9//21 14//20 11//10
f 14//20 25//11 11//10
f 34//18 38//17 33//7
f 38//17 24//8 33//7
f 20//1 29//1 30//36
f 20//1 30//36 16//37
f 30//36 41//38 39//5
f 30//36 39//5 25//11
f 29//1 32//2 30//36
f 32//2 41//38 30//36
f 26//39 15//40 13//26
f 26//39 13//26 24//8
f 16//37 30//36 14//20
f 30//36 25//11 14//20
f 27//1 19//1 26//39
f 19//1 15//40 26//39
f 41//38 45//41 39//5
f 45//41 44//23 39//5
f 32//2 36//3 45//41
f 32//2 45//41 41//38
f 12//42 16//37 10//14
f 16//37 14//20 10//14
f 45//41 40//43 38//17
f 45//41 38//17 44//23
f 36//3 31//2 40//43
f 36//3 40//43 45//41
f 17//1 20//1 12//42
f 20//1 16//37 12//42
f 15//40 12//42 10//14
f 15//40 10//14 13//26
f 19//1 17//1 15//40
f 17//1 12//42 15//40
f 40//43 26//39 38//17
f 26//39 24//8 38//17
f 31//2 27//1 26//39
f 31//2 26//39 40//43
v 2.460833 -2.658818 11.885820
v 2.074583 -2.658818 11.885820
v 2.460834 -2.445323 11.489177
v 2.074584 -2.445323 11.489177
v 2.460834 -1.926689 11.681627
v 2.074584 -1.926688 11.681627
v 2.460835 -1.524743 11.806667
v 2.074584 -1.524743 11.806667
v 2.460828 -2.056889 15.852532
v 2.074578 -2.056889 15.852531
v 2.460835 -0.706038 12.070992
v 2.074585 -0.706038 12.070992
v 2.460828 -1.757458 16.458103
v 2.074578 -1.757457 16.458103
v 2.460830 -1.332425 15.350612
v 2.074580 -1.332425 15.350612
v 2.460831 -1.217027 14.958062
v 2.074581 -1.217027 14.958061
v 2.460829 -1.320862 15.759569
v 2.074579 -1.320861 15.759569
v 2.460831 -0.985983 14.620397
v 2.074581 -0.985982 14.620397
v 2.460829 -1.183483 16.144892
v 2.074579 -1.183482 16.144892
v 2.460828 -1.382857 16.944248
v 2.074578 -1.382856 16.944248
v 2.460832 -0.661892 14.370599
v 2.074582 -0.661892 14.370599
v 2.460836 0.161831 12.324590
v 2.074586 0.161831 12.324589
v 2.460829 -0.933766 16.469055
v 2.074579 -0.933766 16.469053
v 2.460833 -0.276524 14.233316
v 2.074583 -0.276523 14.233315
v 2.460828 -0.876368 17.290808
v 2.074578 -0.876367 17.290808
v 2.460836 0.526970 12.461999
v 2.074586 0.526971 12.461998
v 2.460829 -0.596083 16.700031
v 2.074579 -0.596082 16.700031
v 2.460833 0.132454 14.221717
v 2.074583 0.132455 14.221716
v 2.460836 0.715095 12.595972
v 2.074586 0.715096 12.595972
v 2.460829 -0.203553 16.815424
v 2.074579 -0.203552 16.815424
v 2.460834 0.524984 14.337110
v 2.074584 0.524985 14.337110
v 2.460828 -0.287572 17.463898
v 2.074578 -0.287572 17.463896
v 2.460830 0.205398 16.803921
v 2.074580 0.205399 16.803921
v 2.460834 0.862641 14.568183
v 2.074584 0.862642 14.568182
v 2.460829 0.325909 17.446501
v 2.074579 0.325909 17.446501
v 2.460830 0.590794 16.666542
v 2.074580 0.590795 16.666542
v 2.460833 1.112384 14.892248
v 2.074583 1.112385 14.892248
v 2.460831 0.914885 16.416742
v 2.074581 0.914885 16.416742
v 2.460833 1.249763 15.277571
v 2.074583 1.249764 15.277571
v 2.460832 1.145929 16.079079
v 2.074582 1.145930 16.079077
v 2.460833 1.261301 15.686624
v 2.074583 1.261301 15.686624
v 2.460830 0.903970 17.240528
v 2.074580 0.903971 17.240528
v 2.460835 1.731645 14.554379
v 2.074584 1.731645 14.554379
v 2.460831 1.390088 16.865877
v 2.074581 1.390088 16.865877
v 2.460834 1.892411 15.157121
v 2.074584 1.892411 15.157120
v 2.460832 1.736646 16.359428
v 2.074582 1.736646 16.359428
v 2.460833 1.909747 15.770554
v 2.074583 1.909748 15.770553
vn -0.709738 -0.357768 0.606830
vn -0.715873 -0.561998 0.414228
vn 0.715873 -0.488632 0.498672
vn 0.709738 -0.303873 0.635548
vn 1.000000 0.000000 0.000000
vn -1.000000 0.000000 0.000000
vn -0.710959 -0.092959 -0.697012
vn -0.803125 0.107547 -0.585955
vn 0.803125 0.045228 -0.594043
vn 0.710959 -0.165807 -0.683370
vn -0.707327 -0.232185 0.667623
vn 0.707327 -0.215278 0.673269
vn 0.708945 -0.647816 0.278634
vn -0.708975 -0.666433 0.230659
vn 0.710959 0.267495 -0.650319
vn -0.707114 -0.204627 0.676809
vn 0.707114 -0.210944 0.674856
vn 0.709220 -0.693136 0.128513
vn -0.709220 -0.701041 0.074282
vn -0.710959 0.334483 -0.618549
vn -0.707083 -0.214820 0.673666
vn 0.707083 -0.212439 0.674429
vn -0.558916 -0.358196 -0.747856
vn 0.558916 -0.434980 -0.705954
vn 0.803125 -0.594043 -0.045259
vn -0.707205 -0.222053 0.671194
vn 0.707205 -0.234046 0.667104
vn -0.803125 -0.585955 -0.107578
vn 0.558916 0.536973 -0.631825
vn -0.558916 0.600543 -0.571764
vn -0.647114 0.059755 0.760033
vn 0.647114 0.457228 0.610034
vn 0.710959 -0.650319 -0.267495
vn -0.710959 -0.618519 -0.334513
vn -0.723380 0.663045 0.192389
vn 0.723380 0.689138 0.041932
vn -0.710959 -0.484909 -0.509262
vn 0.710959 -0.535813 -0.455367
vn 0.801233 0.496872 -0.333293
vn -0.710837 0.680929 -0.176122
vn 0.710837 0.659047 -0.245582
vn -0.801233 0.517777 -0.299814
usemtl Material.108
s 1
f 86//44 92//45 93//46
f 86//44 93//46 87//47
f 87//47 93//46 97//48
f 93//46 103//48 97//48
f 96//49 102//49 92//45
f 96//49 92//45 86//44
f 104//50 98//51 99//52
f 104//50 99//52 105//53
f 100//49 94//49 98//51
f 100//49 98//51 104//50
f 105//53 99//52 101//48
f 99//52 95//48 101//48
f 90//49 96//49 86//44
f 90//49 86//44 78//54
f 78//54 86//44 87//47
f 78//54 87//47 79//55
f 79//55 87//47 91//48
f 87//47 97//48 91//48
f 93//46 121//56 103//48
f 121//56 109//48 103//48
f 92//45 120//57 121//56
f 92//45 121//56 93//46
f 102//49 108//49 120//57
f 102//49 120//57 92//45
f 99//52 85//58 89//48
f 99//52 89//48 95//48
f 82//49 90//49 78//54
f 82//49 78//54 60//59
f 60//59 78//54 79//55
f 60//59 79//55 61//60
f 61//60 79//55 83//48
f 79//55 91//48 83//48
f 121//56 125//61 109//48
f 125//61 113//48 109//48
f 120//57 124//62 125//61
f 120//57 125//61 121//56
f 98//51 84//63 85//58
f 98//51 85//58 99//52
f 94//49 88//49 98//51
f 88//49 84//63 98//51
f 76//49 82//49 60//59
f 76//49 60//59 56//64
f 56//64 60//59 61//60
f 56//64 61//60 57//65
f 57//65 61//60 77//48
f 61//60 83//48 77//48
f 108//49 112//49 124//62
f 108//49 124//62 120//57
f 106//49 100//49 104//50
f 106//49 104//50 118//66
f 118//66 104//50 105//53
f 118//66 105//53 119//67
f 125//61 129//68 113//48
f 129//68 117//48 113//48
f 70//49 76//49 56//64
f 70//49 56//64 54//69
f 54//69 56//64 57//65
f 54//69 57//65 55//70
f 55//70 57//65 71//48
f 57//65 77//48 71//48
f 124//62 128//71 129//68
f 124//62 129//68 125//61
f 112//49 116//49 128//71
f 112//49 128//71 124//62
f 85//58 75//72 81//48
f 85//58 81//48 89//48
f 84//63 74//73 75//72
f 84//63 75//72 85//58
f 66//49 70//49 54//69
f 66//49 54//69 52//74
f 52//74 54//69 55//70
f 52//74 55//70 53//75
f 53//75 55//70 67//48
f 55//70 71//48 67//48
f 119//67 105//53 107//48
f 105//53 101//48 107//48
f 129//68 127//76 115//48
f 129//68 115//48 117//48
f 88//49 80//49 84//63
f 80//49 74//73 84//63
f 128//71 126//77 127//76
f 128//71 127//76 129//68
f 52//74 50//78 66//49
f 50//78 64//49 66//49
f 50//78 52//74 53//75
f 50//78 53//75 51//79
f 51//79 53//75 67//48
f 51//79 67//48 65//48
f 116//49 114//49 128//71
f 114//49 126//77 128//71
f 110//49 106//49 122//80
f 106//49 118//66 122//80
f 127//76 123//81 111//48
f 127//76 111//48 115//48
f 75//72 63//82 81//48
f 63//82 73//48 81//48
f 50//78 58//83 64//49
f 58//83 68//49 64//49
f 58//83 50//78 51//79
f 58//83 51//79 59//84
f 59//84 51//79 65//48
f 59//84 65//48 69//48
f 126//77 122//80 123//81
f 126//77 123//81 127//76
f 114//49 110//49 126//77
f 110//49 122//80 126//77
f 74//73 62//85 63//82
f 74//73 63//82 75//72
f 80//49 72//49 62//85
f 80//49 62//85 74//73
f 72//49 68//49 62//85
f 68//49 58//83 62//85
f 62//85 58//83 59//84
f 62//85 59//84 63//82
f 63//82 59//84 69//48
f 63//82 69//48 73//48
f 122//80 118//66 119//67
f 122//80 119//67 123//81
f 123//81 119//67 107//48
f 123//81 107//48 111//48
v 5.083793 -2.669841 11.882789
v 4.697533 -2.669840 11.882788
v 5.083794 -2.456346 11.486145
v 4.697534 -2.456345 11.486144
v 5.083794 -1.937711 11.678596
v 4.697534 -1.937711 11.678596
v 5.083794 -1.535765 11.803636
v 4.697534 -1.535765 11.803635
v 5.083788 -2.067913 15.849500
v 4.697528 -2.067912 15.849500
v 5.083795 -0.717061 12.067961
v 4.697535 -0.717060 12.067960
v 5.083788 -1.768480 16.455070
v 4.697528 -1.768480 16.455070
v 5.083790 -1.343448 15.347580
v 4.697530 -1.343447 15.347579
v 5.083790 -1.228050 14.955029
v 4.697531 -1.228050 14.955029
v 5.083789 -1.331884 15.756537
v 4.697529 -1.331884 15.756536
v 5.083791 -0.997005 14.617365
v 4.697531 -0.997005 14.617364
v 5.083789 -1.194505 16.141861
v 4.697529 -1.194505 16.141859
v 5.083787 -1.393879 16.941216
v 4.697528 -1.393879 16.941216
v 5.083792 -0.672915 14.367567
v 4.697532 -0.672915 14.367567
v 5.083796 0.150808 12.321557
v 4.697536 0.150809 12.321557
v 5.083789 -0.944789 16.466022
v 4.697529 -0.944788 16.466022
v 5.083792 -0.287556 14.230281
v 4.697533 -0.287555 14.230281
v 5.083787 -0.887390 17.287777
v 4.697528 -0.887390 17.287775
v 5.083796 0.515948 12.458966
v 4.697536 0.515948 12.458966
v 5.083789 -0.607105 16.696999
v 4.697529 -0.607105 16.696999
v 5.083793 0.121432 14.218684
v 4.697533 0.121432 14.218684
v 5.083796 0.704072 12.592940
v 4.697536 0.704073 12.592940
v 5.083789 -0.214585 16.812389
v 4.697529 -0.214584 16.812389
v 5.083793 0.513962 14.334078
v 4.697533 0.513962 14.334077
v 5.083788 -0.298595 17.460865
v 4.697528 -0.298594 17.460865
v 5.083789 0.194375 16.800890
v 4.697530 0.194376 16.800888
v 5.083793 0.851619 14.565151
v 4.697533 0.851619 14.565150
v 5.083789 0.314886 17.443470
v 4.697529 0.314886 17.443468
v 5.083790 0.579772 16.663509
v 4.697530 0.579772 16.663509
v 5.083793 1.101362 14.889216
v 4.697533 1.101362 14.889215
v 5.083791 0.903862 16.413710
v 4.697531 0.903862 16.413710
v 5.083793 1.238741 15.274539
v 4.697533 1.238741 15.274538
v 5.083792 1.134906 16.076046
v 4.697532 1.134907 16.076046
v 5.083792 1.250278 15.683592
v 4.697532 1.250278 15.683591
v 5.083790 0.892948 17.237495
v 4.697530 0.892948 17.237495
v 5.083794 1.720622 14.551347
v 4.697535 1.720623 14.551347
v 5.083791 1.379066 16.862846
v 4.697531 1.379066 16.862844
v 5.083794 1.881388 15.154088
v 4.697534 1.881389 15.154088
v 5.083792 1.725624 16.356398
v 4.697532 1.725624 16.356396
v 5.083793 1.898725 15.767521
v 4.697533 1.898725 15.767521
vn -0.709738 -0.357799 0.606830
vn -0.710959 0.126957 -0.691641
vn 0.710959 0.053377 -0.701163
vn 0.803125 0.226630 -0.550951
vn -0.803125 0.283395 -0.524033
vn 0.647084 0.457228 0.610034
usemtl Material.107
s 1
f 166//86 172//45 173//46
f 166//86 173//46 167//47
f 167//47 173//46 177//48
f 173//46 183//48 177//48
f 176//49 182//49 172//45
f 176//49 172//45 166//86
f 184//50 178//87 179//88
f 184//50 179//88 185//53
f 180//49 174//49 178//87
f 180//49 178//87 184//50
f 185//53 179//88 181//48
f 179//88 175//48 181//48
f 170//49 176//49 166//86
f 170//49 166//86 158//54
f 158//54 166//86 167//47
f 158//54 167//47 159//55
f 159//55 167//47 171//48
f 167//47 177//48 171//48
f 173//46 201//56 183//48
f 201//56 189//48 183//48
f 172//45 200//57 201//56
f 172//45 201//56 173//46
f 182//49 188//49 200//57
f 182//49 200//57 172//45
f 179//88 165//89 175//48
f 165//89 169//48 175//48
f 162//49 170//49 158//54
f 162//49 158//54 140//59
f 140//59 158//54 159//55
f 140//59 159//55 141//60
f 141//60 159//55 163//48
f 159//55 171//48 163//48
f 201//56 205//61 189//48
f 205//61 193//48 189//48
f 200//57 204//62 205//61
f 200//57 205//61 201//56
f 178//87 164//90 165//89
f 178//87 165//89 179//88
f 174//49 168//49 164//90
f 174//49 164//90 178//87
f 156//49 162//49 140//59
f 156//49 140//59 136//64
f 136//64 140//59 141//60
f 136//64 141//60 137//65
f 137//65 141//60 157//48
f 141//60 163//48 157//48
f 188//49 192//49 204//62
f 188//49 204//62 200//57
f 186//49 180//49 184//50
f 186//49 184//50 198//66
f 198//66 184//50 185//53
f 198//66 185//53 199//67
f 205//61 209//68 193//48
f 209//68 197//48 193//48
f 150//49 156//49 136//64
f 150//49 136//64 134//69
f 134//69 136//64 137//65
f 134//69 137//65 135//70
f 135//70 137//65 151//48
f 137//65 157//48 151//48
f 204//62 208//71 209//68
f 204//62 209//68 205//61
f 192//49 196//49 208//71
f 192//49 208//71 204//62
f 165//89 155//72 161//48
f 165//89 161//48 169//48
f 164//90 154//73 155//72
f 164//90 155//72 165//89
f 146//49 150//49 134//69
f 146//49 134//69 132//74
f 132//74 134//69 135//70
f 132//74 135//70 133//91
f 133//91 135//70 147//48
f 135//70 151//48 147//48
f 199//67 185//53 187//48
f 185//53 181//48 187//48
f 209//68 207//76 195//48
f 209//68 195//48 197//48
f 168//49 160//49 164//90
f 160//49 154//73 164//90
f 208//71 206//77 207//76
f 208//71 207//76 209//68
f 132//74 130//78 146//49
f 130//78 144//49 146//49
f 130//78 132//74 133//91
f 130//78 133//91 131//79
f 131//79 133//91 147//48
f 131//79 147//48 145//48
f 196//49 194//49 208//71
f 194//49 206//77 208//71
f 190//49 186//49 202//80
f 186//49 198//66 202//80
f 207//76 203//81 191//48
f 207//76 191//48 195//48
f 155//72 143//82 161//48
f 143//82 153//48 161//48
f 130//78 138//83 144//49
f 138//83 148//49 144//49
f 138//83 130//78 131//79
f 138//83 131//79 139//84
f 139//84 131//79 145//48
f 139//84 145//48 149//48
f 206//77 202//80 203//81
f 206//77 203//81 207//76
f 194//49 190//49 206//77
f 190//49 202//80 206//77
f 154//73 142//85 143//82
f 154//73 143//82 155//72
f 160//49 152//49 142//85
f 160//49 142//85 154//73
f 152//49 148//49 142//85
f 148//49 138//83 142//85
f 142//85 138//83 139//84
f 142//85 139//84 143//82
f 143//82 139//84 149//48
f 143//82 149//48 153//48
f 202//80 198//66 199//67
f 202//80 199//67 203//81
f 203//81 199//67 187//48
f 203//81 187//48 191//48
