# Blender v2.65 (sub 0) OBJ File: 'ATR.blend'
# www.blender.org
mtllib R_HR.mtl
o R_HR.1_ShapeIndexedFaceS.052
v -7.889288 -0.593506 -16.069366
v -7.889340 0.924931 -16.041466
v -7.896431 -0.626146 -14.293237
v -7.896484 0.892290 -14.265326
v -8.368607 0.162854 -16.057398
v -8.369303 0.197306 -17.932167
v -8.465098 -0.070048 -16.062071
v -8.465114 0.395762 -16.053511
v -8.465776 -0.035623 -17.935360
v -8.465793 0.430187 -17.926802
v -8.698065 -0.166511 -16.064777
v -8.698088 0.492244 -16.052668
v -8.698703 -0.132151 -17.934507
v -8.698714 0.197226 -17.928457
v -8.698726 0.526603 -17.922398
v -8.931037 -0.070029 -16.063944
v -8.931053 0.395781 -16.055384
v -8.931636 -0.035735 -17.930113
v -8.931652 0.430075 -17.921553
v -9.027544 0.162879 -16.060047
v -9.028126 0.197146 -17.924747
v -9.597640 -0.593439 -16.076242
v -9.597692 0.924998 -16.048332
v -9.604783 -0.626078 -14.300103
v -9.604836 0.892358 -14.272194
vn 0.011261 -0.018372 0.999756
vn 0.780114 -0.011444 0.625507
vn 0.553331 0.536760 0.636921
vn 0.005036 -0.787835 0.615833
vn 0.553362 -0.559771 0.616779
vn 0.005005 0.764672 0.644368
vn -0.772576 -0.011689 0.634785
vn -0.544511 -0.561174 0.623310
vn -0.544572 0.537858 0.643513
vn -0.422987 -0.433851 0.795495
vn -0.595874 -0.014801 0.802911
vn 0.417524 0.406568 0.812616
vn 0.592730 -0.014771 0.805231
vn 0.417554 -0.436140 0.797113
vn -0.003693 -0.608875 0.793237
vn -0.003784 0.579394 0.815027
vn -0.423017 0.404279 0.810907
vn 0.575030 -0.587878 0.568957
vn 0.579669 -0.566637 -0.585528
vn 0.579638 0.587817 -0.564318
vn 0.574999 0.566607 0.590167
vn -0.575030 0.587878 -0.568957
vn -0.579669 0.566668 0.585528
vn -0.579638 -0.587817 0.564287
vn -0.574999 -0.566607 -0.590167
g R_HR.1_ShapeIndexedFaceS.052_Material.054
usemtl Material.054
s 1
f 14//1 21//2 18//3
f 14//1 15//4 19//5
f 14//1 18//3 13//6
f 14//1 6//7 10//8
f 14//1 13//6 9//9
f 14//1 10//8 15//4
f 14//1 19//5 21//2
f 14//1 9//9 6//7
f 8//10 10//8 6//7
f 8//10 6//7 5//11
f 16//12 18//3 21//2
f 16//12 21//2 20//13
f 17//14 19//5 15//4
f 17//14 15//4 12//15
f 11//16 13//6 18//3
f 11//16 18//3 16//12
f 12//15 15//4 10//8
f 12//15 10//8 8//10
f 7//17 9//9 13//6
f 7//17 13//6 11//16
f 20//13 21//2 19//5
f 20//13 19//5 17//14
f 5//11 6//7 9//9
f 5//11 9//9 7//17
f 23//18 25//19 24//20
f 23//18 24//20 22//21
f 3//22 1//23 22//21
f 3//22 22//21 24//20
f 23//18 22//21 16//12
f 23//18 16//12 20//13
f 23//18 20//13 17//14
f 23//18 17//14 12//15
f 2//24 23//18 8//10
f 2//24 8//10 5//11
f 2//24 5//11 7//17
f 8//10 23//18 12//15
f 22//21 1//23 7//17
f 22//21 7//17 11//16
f 22//21 11//16 16//12
f 7//17 1//23 2//24
f 2//24 1//23 3//22
f 2//24 3//22 4//25
f 23//18 2//24 4//25
f 23//18 4//25 25//19
f 25//19 4//25 3//22
f 25//19 3//22 24//20
o R_HR.2_ShapeIndexedFaceS.051
v -7.424239 -0.789044 -10.504566
v -7.424304 1.103253 -10.469796
v -7.428415 -0.381088 -11.368586
v -7.430392 1.126683 -11.744755
v -7.436461 -0.543180 -13.056684
v -7.437999 1.150073 -13.335794
v -7.440308 -0.627802 -13.865375
v -7.443275 0.860339 -14.446764
v -7.447854 -0.604630 -15.444703
v -7.447935 0.872434 -15.423413
v -7.759739 -0.198720 -8.272017
v -7.759755 0.249682 -8.263817
v -7.760445 -0.841739 -8.436117
v -7.760494 0.593149 -8.409718
v -7.760941 0.056525 -8.517017
v -7.761002 -0.978072 -8.556317
v -7.761034 -0.044803 -8.539117
v -7.761041 0.158597 -8.535418
v -7.761062 0.749965 -8.524517
v -7.761196 -0.220888 -8.577518
v -7.761215 0.335974 -8.567317
v -7.761942 -0.454032 -8.739617
v -7.761977 0.574915 -8.720717
v -7.762391 -0.972733 -8.846817
v -7.762406 -0.517511 -8.838517
v -7.762446 0.641984 -8.817217
v -7.762458 0.976548 -8.811017
v -7.763065 -0.607413 -8.978517
v -7.763111 0.736970 -8.953817
v -7.764393 -0.657680 -9.257977
v -7.764443 0.797470 -9.231236
v -7.765726 -0.597180 -9.535386
v -7.765772 0.747204 -9.510676
v -7.766860 -0.435124 -9.768525
v -7.766895 0.593823 -9.749616
v -7.767622 -0.196184 -9.921906
v -7.767641 0.360678 -9.911665
v -7.767895 0.083265 -9.972165
v -7.768715 -0.795276 -10.166056
v -7.768787 1.287531 -10.127786
v -7.994364 -0.198749 -8.270903
v -7.994380 0.252442 -8.262703
v -7.995070 -0.841767 -8.435003
v -7.995120 0.591600 -8.408703
v -7.995566 0.056496 -8.515903
v -7.995626 -0.978101 -8.555202
v -7.995659 -0.044832 -8.538003
v -7.995666 0.158568 -8.534303
v -7.995686 0.742209 -8.523503
v -7.995821 -0.220917 -8.576403
v -7.995840 0.335945 -8.566203
v -7.996566 -0.454062 -8.738503
v -7.996602 0.574886 -8.719603
v -7.997015 -0.972761 -8.845703
v -7.997031 -0.517540 -8.837403
v -7.997071 0.641955 -8.816003
v -7.997083 0.983421 -8.809803
v -7.997689 -0.607443 -8.977403
v -7.997736 0.736942 -8.952703
v -7.999019 -0.657709 -9.256853
v -7.999069 0.797442 -9.230113
v -8.000352 -0.597209 -9.534262
v -8.000398 0.747175 -9.509552
v -8.001484 -0.435153 -9.767401
v -8.001520 0.593794 -9.748491
v -8.002246 -0.196212 -9.920781
v -8.002265 0.360650 -9.910551
v -8.002522 0.083237 -9.971051
v -8.003340 -0.795305 -10.164941
v -8.003412 1.294403 -10.126531
v -8.004951 -0.789115 -10.501791
v -8.005015 1.103183 -10.467021
v -8.009127 -0.381160 -11.365810
v -8.011108 1.126612 -11.741981
v -8.017171 -0.543251 -13.053909
v -8.018713 1.150002 -13.333019
v -8.021024 -0.627873 -13.862598
v -8.023984 0.860268 -14.443989
v -8.028572 -0.604702 -15.441928
v -8.028651 0.872364 -15.420638
vn 0.750603 0.012146 -0.660604
vn -0.756890 0.011963 -0.653401
vn -0.756645 -0.240364 -0.608020
vn 0.750847 -0.240181 -0.615223
vn 0.753716 0.657094 0.008454
vn -0.753777 0.656911 0.015656
vn -0.754967 0.611530 -0.236671
vn 0.752525 0.611713 -0.243873
vn -0.755943 -0.456130 -0.469497
vn 0.751518 -0.455947 -0.476699
vn 0.755882 0.456099 0.469649
vn -0.751518 0.455947 0.476730
vn 0.709067 0.580584 0.400159
vn -0.705161 0.580584 0.406995
vn 0.754936 0.602466 0.258950
vn -0.752586 0.602252 0.266213
vn -0.754936 -0.602466 -0.258980
vn 0.752556 -0.602283 -0.266182
vn -0.755974 0.473006 -0.452437
vn 0.751518 0.473220 -0.459639
vn 0.756645 0.240364 0.608020
vn -0.750877 0.240181 0.615192
vn -0.753716 -0.657094 -0.008454
vn 0.753777 -0.656911 -0.015656
vn -0.752556 -0.611682 0.243904
vn 0.754997 -0.611499 0.236702
vn -0.756645 0.262490 -0.598773
vn 0.750847 0.262673 -0.605976
vn -0.750664 -0.012024 0.660543
vn -0.703696 0.125187 0.699362
vn 0.756920 -0.011902 0.653371
vn 0.710257 0.125462 0.692648
vn 0.708945 -0.594958 0.378643
vn -0.705161 -0.595111 0.385388
vn -0.751518 -0.473251 0.459578
vn 0.755974 -0.473067 0.452406
vn -0.750847 -0.262703 0.605945
vn 0.756676 -0.262520 0.598743
vn 0.710379 -0.150578 0.687490
vn -0.703757 -0.150731 0.694205
vn 0.770440 -0.619892 0.148808
vn -0.762383 -0.592212 -0.260781
vn -0.535844 -0.843989 -0.022919
vn 0.627125 -0.772362 0.100681
vn 0.580065 0.568957 0.582904
vn -0.574602 0.568804 0.588427
vn -0.574633 -0.585040 0.572253
vn 0.580218 -0.584887 0.566729
vn 0.663503 0.729179 0.167333
vn 0.720450 0.691733 0.049226
vn -0.737877 -0.669485 0.085147
vn 0.738823 -0.669301 0.078097
vn -0.705832 0.695334 -0.135044
vn -0.567858 0.804254 -0.175085
vn -0.677511 -0.729789 0.091372
vn -0.708457 0.702506 -0.067080
vn -0.771477 0.626118 0.112918
vn -0.706656 -0.707480 -0.008301
vn -0.668050 -0.667928 -0.327860
vn -0.694174 0.717460 0.057985
vn 0.678549 -0.729606 0.084872
vn 0.651692 -0.679525 -0.336924
vn -0.694205 0.719169 -0.028901
vn 0.693716 0.719352 -0.035554
vn 0.694510 0.717612 0.051332
vn 0.706687 -0.707327 -0.015046
vn 0.707633 0.702689 -0.073855
vn 0.772362 0.626301 0.105533
vn -0.677969 -0.511002 -0.528367
vn 0.683432 -0.502213 -0.529740
vn 0.622089 0.715415 -0.318064
vn -0.625263 0.715262 -0.312113
vn -0.683126 -0.366344 -0.631733
vn -0.661184 0.351787 -0.662587
vn 0.679586 -0.364513 -0.636555
vn 0.654775 0.351939 -0.668844
vn -0.685415 0.097659 -0.721549
vn -0.666677 -0.142430 -0.731590
vn 0.658956 -0.144688 -0.738121
vn 0.678518 0.097812 -0.728019
g R_HR.2_ShapeIndexedFaceS.051_Material.053
usemtl Material.053
s 1
f 93//26 63//27 61//28
f 93//26 61//28 91//29
f 86//30 56//31 58//32
f 86//30 58//32 88//33
f 91//29 61//28 59//34
f 91//29 59//34 89//35
f 78//36 48//37 81//38
f 81//38 48//37 51//39
f 81//38 51//39 84//40
f 84//40 51//39 54//41
f 89//35 59//34 57//42
f 89//35 57//42 87//43
f 88//33 58//32 60//44
f 88//33 60//44 90//45
f 76//46 46//47 48//37
f 76//46 48//37 78//36
f 87//43 57//42 55//48
f 87//43 55//48 85//49
f 85//49 55//48 53//50
f 85//49 53//50 83//51
f 90//45 60//44 62//52
f 90//45 62//52 92//53
f 40//54 43//55 70//56
f 70//56 43//55 46//47
f 70//56 46//47 73//57
f 73//57 46//47 76//46
f 80//58 83//51 53//50
f 80//58 53//50 50//59
f 80//58 50//59 47//60
f 80//58 47//60 77//61
f 84//40 54//41 56//31
f 84//40 56//31 86//30
f 77//61 47//60 45//62
f 77//61 45//62 75//63
f 92//53 62//52 63//27
f 92//53 63//27 93//26
f 72//64 75//63 45//62
f 72//64 45//62 42//65
f 72//64 42//65 40//54
f 72//64 40//54 70//56
f 97//66 27//67 65//68
f 97//66 65//68 95//69
f 104//70 34//71 35//72
f 104//70 35//72 105//73
f 96//74 97//66 95//69
f 96//74 95//69 94//75
f 105//73 35//72 33//76
f 105//73 33//76 103//77
f 26//78 96//74 94//75
f 26//78 94//75 64//79
f 31//80 30//81 28//82
f 31//80 28//82 29//83
f 65//68 64//79 63//27
f 65//68 63//27 62//52
f 65//68 62//52 60//44
f 65//68 60//44 58//32
f 65//68 58//32 56//31
f 65//68 56//31 52//84
f 64//79 49//85 55//48
f 64//79 55//48 57//42
f 64//79 57//42 59//34
f 64//79 59//34 61//28
f 64//79 61//28 63//27
f 54//41 51//39 52//84
f 54//41 52//84 56//31
f 53//50 55//48 49//85
f 53//50 49//85 50//59
f 103//77 33//76 31//80
f 103//77 31//80 101//86
f 95//69 65//68 52//84
f 95//69 52//84 82//87
f 32//88 34//71 104//70
f 32//88 104//70 102//89
f 94//75 95//69 93//26
f 94//75 93//26 91//29
f 94//75 91//29 89//35
f 94//75 89//35 87//43
f 94//75 87//43 85//49
f 94//75 85//49 79//90
f 83//51 80//58 79//90
f 83//51 79//90 85//49
f 81//38 84//40 82//87
f 82//87 84//40 86//30
f 82//87 86//30 95//69
f 95//69 86//30 88//33
f 95//69 88//33 90//45
f 92//53 93//26 95//69
f 92//53 95//69 90//45
f 101//86 31//80 29//83
f 101//86 29//83 99//91
f 64//79 94//75 79//90
f 64//79 79//90 49//85
f 28//82 30//81 100//92
f 28//82 100//92 98//93
f 44//94 52//84 51//39
f 44//94 51//39 48//37
f 44//94 48//37 46//47
f 44//94 46//47 43//55
f 99//91 29//83 27//67
f 99//91 27//67 97//66
f 82//87 52//84 44//94
f 82//87 44//94 74//95
f 33//76 32//88 30//81
f 33//76 30//81 31//80
f 74//95 73//57 76//46
f 74//95 76//46 78//36
f 74//95 78//36 81//38
f 74//95 81//38 82//87
f 102//89 104//70 105//73
f 102//89 105//73 103//77
f 49//85 79//90 71//96
f 49//85 71//96 41//97
f 26//78 27//67 29//83
f 26//78 29//83 28//82
f 44//94 43//55 39//98
f 39//98 43//55 40//54
f 39//98 40//54 38//99
f 38//99 40//54 42//65
f 38//99 42//65 41//97
f 100//92 102//89 103//77
f 100//92 103//77 101//86
f 74//95 44//94 39//98
f 74//95 39//98 69//100
f 35//72 34//71 32//88
f 35//72 32//88 33//76
f 70//56 73//57 74//95
f 70//56 74//95 69//100
f 70//56 69//100 68//101
f 70//56 68//101 71//96
f 70//56 71//96 72//64
f 98//93 100//92 101//86
f 98//93 101//86 99//91
f 41//97 71//96 68//101
f 41//97 68//101 38//99
f 26//78 28//82 98//93
f 26//78 98//93 96//74
f 39//98 38//99 36//102
f 39//98 36//102 37//103
f 96//74 98//93 99//91
f 96//74 99//91 97//66
f 69//100 39//98 37//103
f 69//100 37//103 67//104
f 30//81 32//88 102//89
f 30//81 102//89 100//92
f 68//101 69//100 67//104
f 68//101 67//104 66//105
f 27//67 26//78 64//79
f 27//67 64//79 65//68
f 38//99 68//101 66//105
f 38//99 66//105 36//102
f 37//103 36//102 66//105
f 37//103 66//105 67//104
f 49//85 41//97 45//62
f 49//85 45//62 47//60
f 49//85 47//60 50//59
f 45//62 41//97 42//65
f 72//64 71//96 75//63
f 75//63 71//96 79//90
f 75//63 79//90 77//61
f 77//61 79//90 80//58
o R_HR.3_ShapeIndexedFaceS.050
v -9.395411 -0.193377 -8.264118
v -9.395428 0.257814 -8.255818
v -9.396116 -0.836395 -8.428218
v -9.396166 0.596972 -8.401918
v -9.396612 0.061868 -8.509118
v -9.396674 -0.972729 -8.548418
v -9.396707 -0.039460 -8.531218
v -9.396713 0.163940 -8.527518
v -9.396733 0.747581 -8.516718
v -9.396869 -0.215546 -8.569618
v -9.396888 0.341317 -8.559418
v -9.397614 -0.448690 -8.731718
v -9.397650 0.580258 -8.712718
v -9.398063 -0.967389 -8.838918
v -9.398079 -0.512168 -8.830518
v -9.398119 0.647326 -8.809218
v -9.398130 0.988793 -8.803018
v -9.398737 -0.602071 -8.970618
v -9.398784 0.742314 -8.945918
v -9.400064 -0.652338 -9.250058
v -9.400115 0.802814 -9.223318
v -9.401398 -0.591838 -9.527468
v -9.401444 0.752547 -9.502758
v -9.402532 -0.429781 -9.760607
v -9.402567 0.599166 -9.741697
v -9.403294 -0.190840 -9.913986
v -9.403313 0.366022 -9.903757
v -9.403567 0.088609 -9.964256
v -9.404387 -0.789933 -10.158146
v -9.404459 1.299783 -10.119736
v -9.405996 -0.783743 -10.494996
v -9.406062 1.108563 -10.460226
v -9.410174 -0.375788 -11.359016
v -9.412156 1.131992 -11.735186
v -9.418219 -0.537879 -13.047115
v -9.419759 1.155372 -13.326225
v -9.422071 -0.622501 -13.855804
v -9.425031 0.865640 -14.437194
v -9.429619 -0.599330 -15.435133
v -9.429698 0.877735 -15.413843
v -9.630036 -0.193406 -8.263003
v -9.630053 0.254997 -8.254804
v -9.630743 -0.836424 -8.427104
v -9.630793 0.598463 -8.400703
v -9.631239 0.061840 -8.508004
v -9.631300 -0.972758 -8.547204
v -9.631332 -0.039489 -8.530104
v -9.631339 0.163911 -8.526403
v -9.631360 0.755279 -8.515504
v -9.631494 -0.215574 -8.568503
v -9.631513 0.341288 -8.558304
v -9.632239 -0.448718 -8.730504
v -9.632276 0.580229 -8.711604
v -9.632688 -0.967419 -8.837804
v -9.632704 -0.512197 -8.829404
v -9.632744 0.647298 -8.808104
v -9.632755 0.981864 -8.802004
v -9.633362 -0.602099 -8.969503
v -9.633409 0.742286 -8.944804
v -9.634691 -0.652366 -9.248934
v -9.634741 0.802786 -9.222194
v -9.636024 -0.591866 -9.526343
v -9.636070 0.752519 -9.501644
v -9.637156 -0.429810 -9.759493
v -9.637192 0.599138 -9.740582
v -9.637919 -0.190869 -9.912863
v -9.637938 0.365994 -9.902633
v -9.638193 0.088580 -9.963133
v -9.639011 -0.789962 -10.157022
v -9.639084 1.292854 -10.118743
v -9.986708 -0.783814 -10.492221
v -9.986773 1.108492 -10.457452
v -9.990884 -0.375859 -11.356241
v -9.992870 1.131922 -11.732410
v -9.998930 -0.537950 -13.044339
v -10.000467 1.155301 -13.323450
v -10.002787 -0.622571 -13.853029
v -10.005745 0.865568 -14.434420
v -10.010332 -0.599401 -15.432358
v -10.010414 0.877664 -15.411068
vn 0.751549 -0.455947 -0.476699
vn -0.705252 0.580554 0.406873
vn -0.752556 0.602313 0.266152
vn 0.754906 0.602527 0.258950
vn 0.708945 0.580737 0.400128
vn 0.755974 0.456069 0.469527
vn -0.751579 0.455855 0.476699
vn -0.755974 0.473037 -0.452437
vn 0.751518 0.473190 -0.459639
vn 0.756584 0.240303 0.608081
vn -0.750847 0.240089 0.615284
vn -0.752495 -0.611713 0.243904
vn 0.754967 -0.611530 0.236641
vn -0.703726 0.125217 0.699301
vn 0.710318 0.125370 0.692587
vn 0.756920 -0.011841 0.653371
vn -0.751396 -0.473312 0.459700
vn 0.756066 -0.472945 0.452376
vn 0.709067 -0.594928 0.378460
vn -0.999939 0.008545 -0.000763
vn -0.750816 -0.262673 0.605976
vn 0.756645 -0.262490 0.598773
vn 0.161840 -0.210395 0.964110
vn -0.703757 -0.150731 0.694235
vn -0.625935 -0.772515 0.106662
vn 0.535783 -0.843867 -0.028077
vn 0.760002 -0.591998 -0.268075
vn -0.768822 -0.620075 0.156163
vn -0.720115 0.691549 0.056124
vn -0.662038 0.729026 0.173681
vn -0.737907 -0.669485 0.085147
vn 0.565966 0.804407 -0.180486
vn 0.704367 0.695517 -0.141789
vn 0.665059 -0.667776 -0.334208
vn -0.654714 -0.679678 -0.330699
vn -0.706626 -0.707480 -0.008301
vn 0.673025 -0.510819 -0.534806
vn -0.688314 -0.502396 -0.523209
vn 0.621998 0.715384 -0.318217
vn -0.625294 0.715232 -0.312082
vn 0.677206 -0.366192 -0.638173
vn 0.654775 0.351878 -0.668874
vn -0.685537 -0.364757 -0.630055
vn -0.661214 0.351726 -0.662587
vn 0.659780 -0.142247 -0.737846
vn 0.678518 0.097842 -0.727989
vn -0.665792 -0.144871 -0.731895
vn -0.685446 0.097690 -0.721519
g R_HR.3_ShapeIndexedFaceS.050_Material.052
usemtl Material.052
s 1
f 131//28 171//29 173//26
f 131//28 173//26 133//27
f 128//32 168//33 166//30
f 128//32 166//30 126//31
f 129//34 169//106 171//29
f 129//34 171//29 131//28
f 121//107 124//108 164//109
f 121//107 164//109 161//110
f 121//107 161//110 158//111
f 121//107 158//111 118//112
f 127//42 167//43 169//106
f 127//42 169//106 129//34
f 130//113 170//114 168//33
f 130//113 168//33 128//32
f 118//112 158//111 156//115
f 118//112 156//115 116//116
f 125//48 165//49 167//43
f 125//48 167//43 127//42
f 123//117 163//118 165//49
f 123//117 165//49 125//48
f 132//52 172//53 170//114
f 132//52 170//114 130//113
f 113//119 116//116 156//115
f 113//119 156//115 153//120
f 113//119 153//120 150//121
f 113//119 150//121 110//54
f 117//122 157//123 160//124
f 117//122 160//124 163//118
f 117//122 163//118 123//117
f 117//122 123//117 120//125
f 126//31 166//30 164//109
f 126//31 164//109 124//108
f 115//126 155//127 157//123
f 115//126 157//123 117//122
f 133//27 173//26 172//53
f 133//27 172//53 132//52
f 150//121 152//128 155//127
f 150//121 155//127 115//126
f 150//121 115//126 112//129
f 150//121 112//129 110//54
f 135//130 175//131 177//132
f 135//130 177//132 137//133
f 145//72 185//73 184//70
f 145//72 184//70 144//71
f 134//134 135//130 137//133
f 134//134 137//133 136//135
f 143//136 183//77 185//73
f 143//136 185//73 145//72
f 174//137 134//134 136//135
f 174//137 136//135 176//138
f 179//91 178//93 180//92
f 179//91 180//92 181//86
f 174//137 175//131 173//26
f 174//137 173//26 171//29
f 174//137 171//29 169//106
f 174//137 169//106 167//43
f 174//137 167//43 165//49
f 174//137 165//49 159//90
f 163//118 160//124 159//90
f 163//118 159//90 165//49
f 161//110 164//109 162//139
f 162//139 164//109 166//30
f 162//139 166//30 175//131
f 175//131 166//30 168//33
f 175//131 168//33 170//114
f 172//53 173//26 175//131
f 172//53 175//131 170//114
f 141//80 181//86 183//77
f 141//80 183//77 143//136
f 122//140 162//139 175//131
f 122//140 175//131 135//130
f 142//88 144//71 184//70
f 142//88 184//70 182//89
f 135//130 134//134 133//27
f 135//130 133//27 132//52
f 135//130 132//52 130//113
f 135//130 130//113 128//32
f 135//130 128//32 126//31
f 135//130 126//31 122//140
f 134//134 119//85 125//48
f 134//134 125//48 127//42
f 134//134 127//42 129//34
f 134//134 129//34 131//28
f 134//134 131//28 133//27
f 124//108 121//107 122//140
f 124//108 122//140 126//31
f 123//117 125//48 119//85
f 123//117 119//85 120//125
f 139//141 179//91 181//86
f 139//141 181//86 141//80
f 159//90 119//85 134//134
f 159//90 134//134 174//137
f 138//82 140//81 180//92
f 138//82 180//92 178//93
f 154//142 153//120 156//115
f 154//142 156//115 158//111
f 154//142 158//111 161//110
f 154//142 161//110 162//139
f 137//133 177//132 179//91
f 137//133 179//91 139//141
f 114//143 154//142 162//139
f 114//143 162//139 122//140
f 181//86 180//92 182//89
f 181//86 182//89 183//77
f 114//143 122//140 121//107
f 114//143 121//107 118//112
f 114//143 118//112 116//116
f 114//143 116//116 113//119
f 143//136 145//72 144//71
f 143//136 144//71 142//88
f 151//144 111//145 119//85
f 151//144 119//85 159//90
f 177//132 176//138 178//93
f 177//132 178//93 179//91
f 150//121 153//120 154//142
f 150//121 154//142 149//146
f 150//121 149//146 148//147
f 150//121 148//147 151//144
f 150//121 151//144 152//128
f 141//80 143//136 142//88
f 141//80 142//88 140//81
f 109//148 149//146 154//142
f 109//148 154//142 114//143
f 183//77 182//89 184//70
f 183//77 184//70 185//73
f 114//143 113//119 109//148
f 109//148 113//119 110//54
f 109//148 110//54 108//149
f 108//149 110//54 112//129
f 108//149 112//129 111//145
f 139//141 141//80 140//81
f 139//141 140//81 138//82
f 148//147 108//149 111//145
f 148//147 111//145 151//144
f 136//135 138//82 178//93
f 136//135 178//93 176//138
f 147//150 146//151 148//147
f 147//150 148//147 149//146
f 137//133 139//141 138//82
f 137//133 138//82 136//135
f 107//152 147//150 149//146
f 107//152 149//146 109//148
f 140//81 142//88 182//89
f 140//81 182//89 180//92
f 106//153 107//152 109//148
f 106//153 109//148 108//149
f 175//131 174//137 176//138
f 175//131 176//138 177//132
f 146//151 106//153 108//149
f 146//151 108//149 148//147
f 107//152 106//153 146//151
f 107//152 146//151 147//150
f 152//128 151//144 155//127
f 155//127 151//144 159//90
f 155//127 159//90 157//123
f 157//123 159//90 160//124
f 119//85 111//145 115//126
f 119//85 115//126 117//122
f 119//85 117//122 120//125
f 115//126 111//145 112//129
