# Blender v2.65 (sub 0) OBJ File: 'ATR.blend'
# www.blender.org
mtllib R_AAA.mtl
o R_WAA.14_ShapeIndexedFaceS.070
v -7.209173 1.404605 3.276100
v -7.941783 0.514492 3.248019
v -8.067737 0.627566 3.244337
v -7.077083 1.304385 3.241872
v -8.484289 -0.098137 2.991968
v -8.610242 0.014937 2.988286
v -7.771583 0.679502 2.492620
v -7.897536 0.792576 2.488939
v -7.583441 1.213164 2.392372
v -7.451349 1.112944 2.358144
v -8.314089 0.066873 2.236559
v -8.440042 0.179947 2.232887
vn -0.035859 -0.835566 -0.548173
vn 0.259590 -0.727103 0.635517
vn -0.604785 0.052126 0.794671
vn -0.908017 -0.173650 -0.381207
vn -0.573779 0.500168 0.648518
vn 0.551225 -0.550798 0.626667
vn 0.670705 -0.093387 0.735801
vn -0.188330 0.677755 0.710715
vn 0.059877 0.918424 -0.390973
vn -0.422040 0.553056 -0.718314
vn 0.569750 -0.368084 -0.734733
vn 0.918912 0.147221 -0.365886
usemtl Material.072
s 1
f 1//1 9//2 10//3
f 1//1 10//3 4//4
f 7//5 8//6 12//7
f 7//5 12//7 11//8
f 7//5 11//8 5//9
f 7//5 5//9 2//10
f 8//6 3//11 6//12
f 8//6 6//12 12//7
f 2//10 5//9 6//12
f 2//10 6//12 3//11
f 11//8 12//7 6//12
f 11//8 6//12 5//9
f 7//5 2//10 4//4
f 7//5 4//4 10//3
f 1//1 4//4 2//10
f 1//1 2//10 3//11
f 9//2 1//1 3//11
f 9//2 3//11 8//6
f 8//6 7//5 10//3
f 8//6 10//3 9//2
o R_WAA.2_ShapeIndexedFaceS.069
v -8.997586 -0.389223 4.521586
v -9.036279 -0.438507 4.501799
v -10.223489 0.587281 4.486556
v -9.650824 0.047715 4.483469
v -10.262184 0.537994 4.466768
v -9.689519 -0.001572 4.463670
v -8.246298 -0.714561 4.239419
v -8.284991 -0.763843 4.219632
v -10.678347 1.259950 4.077168
v -10.717038 1.210658 4.057379
v -10.289634 1.682898 2.264047
v -10.328321 1.633608 2.244249
v -7.942245 -0.081953 2.069716
v -7.980937 -0.131237 2.049928
v -8.397322 0.263904 1.721706
v -8.436013 0.214620 1.701907
v -9.620487 1.243384 1.673895
v -9.659182 1.194103 1.654107
v -9.010028 0.744941 1.494527
v -9.048720 0.695657 1.474735
vn -0.307596 -0.274178 -0.911130
vn -0.704947 -0.540117 0.459639
vn -0.953673 -0.229072 0.194861
vn -0.798212 0.001953 -0.602344
vn 0.002075 0.561449 0.827479
vn -0.322764 0.758995 0.565386
vn -0.178686 0.954527 -0.238563
vn -0.255531 -0.353099 -0.899991
vn -0.537492 -0.644795 0.543382
vn 0.243599 0.347270 0.905545
vn -0.125889 -0.412885 -0.902005
vn -0.327342 -0.824152 0.462111
vn 0.538102 0.106845 0.836055
vn 0.190771 -0.801233 -0.567095
vn 0.043672 -0.987915 0.148686
vn 0.848903 -0.119449 0.514847
vn 0.979522 0.050539 -0.194708
vn 0.360607 0.791192 -0.493881
vn 0.567919 0.697256 -0.437330
vn 0.722404 0.490402 -0.487411
usemtl Material.071
s 1
f 13//13 27//14 25//15
f 13//13 25//15 19//16
f 25//15 27//14 28//17
f 25//15 28//17 26//18
f 25//15 26//18 20//19
f 25//15 20//19 19//16
f 27//14 13//13 16//20
f 27//14 16//20 31//21
f 27//14 31//21 32//22
f 27//14 32//22 28//17
f 31//21 16//20 15//23
f 31//21 15//23 29//24
f 31//21 29//24 30//25
f 31//21 30//25 32//22
f 29//24 15//23 21//26
f 29//24 21//26 23//27
f 29//24 23//27 24//28
f 29//24 24//28 30//25
f 23//27 21//26 22//29
f 23//27 22//29 24//28
f 14//30 13//13 19//16
f 14//30 19//16 20//19
f 13//13 14//30 18//31
f 13//13 18//31 16//20
f 16//20 18//31 17//32
f 16//20 17//32 15//23
f 15//23 17//32 22//29
f 15//23 22//29 21//26
f 26//18 28//17 14//30
f 26//18 14//30 20//19
f 28//17 32//22 18//31
f 28//17 18//31 14//30
f 32//22 30//25 17//32
f 32//22 17//32 18//31
f 30//25 24//28 22//29
f 30//25 22//29 17//32
o R_WAA.1_ShapeIndexedFaceS.057
v -8.787623 -0.221500 2.597086
v -8.084205 -0.218632 2.594764
v -8.790498 0.481917 2.594700
v -8.087081 0.484786 2.592368
v -9.463877 0.473436 0.975195
v -8.795840 0.476160 0.972984
v -9.461038 -0.230023 0.967028
v -8.792999 -0.227295 0.964818
v -8.520266 -0.226433 0.859389
v -8.523141 0.476967 0.856998
v -8.621139 0.476398 0.816786
v -8.624429 -0.227056 0.816647
v -8.673179 -0.227316 0.796641
v -8.367768 -0.225968 0.795631
v -8.676054 0.476105 0.794250
v -8.370643 0.477422 0.793240
v -8.736935 -0.228040 0.644144
v -8.305019 -0.226225 0.642715
v -8.739810 0.475380 0.641754
v -8.307894 0.477178 0.640324
v -8.339423 0.476783 0.564910
v -8.337679 -0.226649 0.564597
v -8.674186 -0.228248 0.491230
v -8.368775 -0.227002 0.490219
v -8.677061 0.475171 0.488838
v -8.371651 0.476417 0.487828
v -8.521688 -0.227818 0.427472
v -8.524565 0.475600 0.425080
v -9.463061 -0.231894 0.352843
v -8.795024 -0.229168 0.350632
v -9.465937 0.471527 0.350450
v -8.091606 -0.226300 0.348305
v -8.797899 0.474250 0.348240
v -8.094481 0.477117 0.345912
vn 0.425153 -0.800928 0.421522
vn 0.418104 0.807428 0.416150
vn 0.590838 0.806757 -0.004791
vn 0.597766 -0.801630 0.000763
vn -0.005219 0.802240 -0.596942
vn 0.001312 -0.806085 -0.591784
vn 0.422071 -0.803797 -0.419172
vn 0.415632 0.804559 -0.424146
vn 0.005402 -0.802271 0.596881
vn -0.001740 0.806238 0.591571
vn -0.425031 0.801111 -0.421369
vn -0.418287 -0.807215 -0.416395
vn -0.271462 0.708213 0.651662
vn -0.265450 -0.705985 0.656575
vn -0.415693 -0.804529 0.424146
vn -0.422071 0.803797 0.419172
vn -0.597644 0.801752 -0.000397
vn -0.591083 -0.806574 0.004334
vn 0.655354 -0.705222 -0.270425
vn 0.647328 0.711112 -0.274300
vn -0.576861 -0.581683 -0.573443
vn 0.577776 -0.576983 -0.577227
vn 0.308176 -0.902615 -0.300516
vn 0.576983 -0.572893 -0.582080
vn 0.581561 -0.573107 0.577288
vn 0.005219 -0.704794 0.709372
vn -0.577807 0.576891 0.577288
vn -0.573016 -0.577776 0.581164
vn -0.000549 0.709372 0.704825
vn 0.573840 0.581774 -0.576373
vn 0.292764 0.906400 -0.304483
vn 0.573077 0.577715 -0.581195
vn 0.576891 0.581530 0.573565
vn -0.581591 0.573016 -0.577380
usemtl Material.059
s 1
f 48//33 46//34 50//35
f 48//33 50//35 52//36
f 59//37 60//38 58//39
f 59//37 58//39 56//40
f 42//41 41//42 46//34
f 42//41 46//34 48//33
f 55//43 57//44 60//38
f 55//43 60//38 59//37
f 44//45 41//42 42//41
f 44//45 42//41 43//46
f 44//45 43//46 47//47
f 44//45 47//47 45//48
f 49//49 51//50 57//44
f 49//49 57//44 55//43
f 56//40 58//39 53//51
f 56//40 53//51 52//36
f 56//40 52//36 50//35
f 56//40 50//35 54//52
f 45//48 47//47 51//50
f 45//48 51//50 49//49
f 36//53 35//54 38//55
f 37//56 63//57 65//58
f 37//56 65//58 38//55
f 64//59 66//60 65//58
f 64//59 65//58 62//61
f 39//62 37//56 38//55
f 39//62 38//55 40//63
f 35//54 33//64 40//63
f 35//54 40//63 38//55
f 61//65 39//62 40//63
f 61//65 40//63 62//61
f 54//52 50//35 64//59
f 64//59 50//35 46//34
f 46//34 33//64 64//59
f 33//64 46//34 41//42
f 33//64 41//42 40//63
f 40//63 41//42 44//45
f 53//51 58//39 66//60
f 66//60 58//39 60//38
f 66//60 60//38 65//58
f 65//58 60//38 57//44
f 65//58 57//44 51//50
f 38//55 65//58 51//50
f 38//55 51//50 47//47
f 38//55 47//47 43//46
f 34//66 33//64 35//54
f 34//66 35//54 36//53
f 66//60 36//53 48//33
f 66//60 48//33 52//36
f 66//60 52//36 53//51
f 38//55 43//46 42//41
f 38//55 42//41 48//33
f 38//55 48//33 36//53
f 37//56 39//62 61//65
f 37//56 61//65 63//57
f 33//64 34//66 64//59
f 64//59 34//66 36//53
f 64//59 36//53 66//60
f 44//45 45//48 40//63
f 40//63 45//48 49//49
f 40//63 49//49 62//61
f 62//61 49//49 55//43
f 62//61 55//43 59//37
f 64//59 62//61 59//37
f 64//59 59//37 56//40
f 64//59 56//40 54//52
f 63//57 61//65 62//61
f 63//57 62//61 65//58
